<?xml version="1.0" encoding="iso-8859-1"?>
<!-- Generator: Adobe Illustrator 19.0.0, SVG Export Plug-In . SVG Version: 6.00 Build 0)  -->
<svg version="1.1" id="Capa_1" xmlns="http://www.w3.org/2000/svg" xmlns:xlink="http://www.w3.org/1999/xlink" x="0px" y="0px"
	 viewBox="0 0 512 512" style="enable-background:new 0 0 512 512;" xml:space="preserve">
<g>
	<g>
		<path d="M467,316H140v-54c0-8.284-6.716-15-15-15s-15,6.716-15,15v54H45c-24.813,0-45,20.187-45,45v80c0,24.813,20.187,45,45,45
			h422c24.813,0,45-20.187,45-45v-80C512,336.187,491.813,316,467,316z M482,441c0,8.271-6.729,15-15,15H45c-8.271,0-15-6.729-15-15
			v-80c0-8.271,6.729-15,15-15h422c8.271,0,15,6.729,15,15V441z"/>
	</g>
</g>
<g>
	<g>
		<path d="M447,366c-8.284,0-15,6.716-15,15v40c0,8.284,6.716,15,15,15s15-6.716,15-15v-40C462,372.716,455.284,366,447,366z"/>
	</g>
</g>
<g>
	<g>
		<path d="M397,366c-8.284,0-15,6.716-15,15v40c0,8.284,6.716,15,15,15s15-6.716,15-15v-40C412,372.716,405.284,366,397,366z"/>
	</g>
</g>
<g>
	<g>
		<path d="M347,366c-8.284,0-15,6.716-15,15v40c0,8.284,6.716,15,15,15s15-6.716,15-15v-40C362,372.716,355.284,366,347,366z"/>
	</g>
</g>
<g>
	<g>
		<path d="M297,366c-8.284,0-15,6.716-15,15v40c0,8.284,6.716,15,15,15s15-6.716,15-15v-40C312,372.716,305.284,366,297,366z"/>
	</g>
</g>
<g>
	<g>
		<path d="M245.578,75.951C213.196,43.74,170.374,26,125,26C79.626,26,36.804,43.74,4.422,75.951
			c-5.874,5.842-5.898,15.34-0.057,21.213c5.843,5.873,15.341,5.899,21.213,0.056C52.301,70.639,87.609,56,125,56
			s72.699,14.639,99.422,41.22c5.873,5.842,15.369,5.818,21.213-0.056C251.477,91.29,251.452,81.793,245.578,75.951z"/>
	</g>
</g>
<g>
	<g>
		<path d="M203.289,123.35C182.542,101.725,154.738,89.815,125,89.815c-29.738,0-57.542,11.909-78.289,33.534
			c-5.735,5.978-5.538,15.473,0.439,21.208c5.979,5.736,15.474,5.539,21.209-0.439c15.036-15.672,35.151-24.303,56.641-24.303
			s41.604,8.631,56.641,24.303c5.741,5.983,15.236,6.171,21.209,0.44C208.828,138.823,209.025,129.328,203.289,123.35z"/>
	</g>
</g>
<g>
	<g>
		<path d="M161.745,171.896c-8.863-11.608-22.257-18.266-36.745-18.266c-14.488,0-27.882,6.658-36.747,18.266
			c-5.027,6.584-3.766,15.997,2.818,21.025c6.583,5.027,15.998,3.767,21.025-2.818c3.142-4.114,7.845-6.473,12.903-6.473
			c5.058,0,9.762,2.359,12.903,6.473c5.032,6.589,14.446,7.843,21.025,2.818C165.511,187.893,166.773,178.48,161.745,171.896z"/>
	</g>
</g>
<g>
</g>
<g>
</g>
<g>
</g>
<g>
</g>
<g>
</g>
<g>
</g>
<g>
</g>
<g>
</g>
<g>
</g>
<g>
</g>
<g>
</g>
<g>
</g>
<g>
</g>
<g>
</g>
<g>
</g>
</svg>
