<?xml version="1.0" encoding="iso-8859-1"?>
<!-- Generator: Adobe Illustrator 19.0.0, SVG Export Plug-In . SVG Version: 6.00 Build 0)  -->
<svg version="1.1" id="Capa_1" xmlns="http://www.w3.org/2000/svg" xmlns:xlink="http://www.w3.org/1999/xlink" x="0px" y="0px"
	 viewBox="0 0 512 512" style="enable-background:new 0 0 512 512;" xml:space="preserve">
<g>
	<g>
		<path d="M500.08,178.616l-226-170.673c-10.645-8.039-25.514-8.038-36.16,0l-226,170.673C4.456,184.253,0,193.202,0,202.555
			v277.531c0,16.542,13.458,30,30,30h452c16.542,0,30-13.458,30-30V202.555C512,193.202,507.544,184.253,500.08,178.616z
			 M482,480.086H30V202.555L256,31.883l226,170.672V480.086z"/>
	</g>
</g>
<g>
	<g>
		<path d="M376.578,269.037c-32.382-32.211-75.204-49.951-120.578-49.951c-45.374,0-88.196,17.74-120.578,49.951
			c-5.874,5.842-5.898,15.34-0.057,21.213c5.843,5.873,15.341,5.898,21.213,0.056c26.723-26.582,62.031-41.22,99.422-41.22
			s72.699,14.639,99.422,41.22c5.873,5.842,15.369,5.818,21.213-0.056C382.477,284.376,382.452,274.879,376.578,269.037z"/>
	</g>
</g>
<g>
	<g>
		<path d="M334.289,316.436c-20.747-21.625-48.551-33.534-78.289-33.534c-29.738,0-57.542,11.909-78.289,33.534
			c-5.735,5.978-5.538,15.473,0.439,21.208c5.979,5.735,15.474,5.539,21.209-0.439c15.036-15.672,35.151-24.303,56.641-24.303
			s41.604,8.631,56.641,24.303c5.741,5.983,15.236,6.17,21.209,0.439C339.828,331.909,340.025,322.414,334.289,316.436z"/>
	</g>
</g>
<g>
	<g>
		<path d="M292.745,364.983c-8.863-11.609-22.257-18.266-36.745-18.266c-14.488,0-27.882,6.658-36.747,18.266
			c-5.027,6.584-3.766,15.997,2.818,21.025c6.583,5.028,15.998,3.767,21.025-2.818c3.142-4.114,7.845-6.473,12.903-6.473
			c5.058,0,9.762,2.359,12.903,6.473c5.032,6.589,14.446,7.843,21.025,2.818C296.511,380.98,297.773,371.567,292.745,364.983z"/>
	</g>
</g>
<g>
</g>
<g>
</g>
<g>
</g>
<g>
</g>
<g>
</g>
<g>
</g>
<g>
</g>
<g>
</g>
<g>
</g>
<g>
</g>
<g>
</g>
<g>
</g>
<g>
</g>
<g>
</g>
<g>
</g>
</svg>
