<?xml version="1.0" encoding="iso-8859-1"?>
<!-- Generator: Adobe Illustrator 19.0.0, SVG Export Plug-In . SVG Version: 6.00 Build 0)  -->
<svg version="1.1" id="Capa_1" xmlns="http://www.w3.org/2000/svg" xmlns:xlink="http://www.w3.org/1999/xlink" x="0px" y="0px"
	 viewBox="0 0 512 512" style="enable-background:new 0 0 512 512;" xml:space="preserve">
<g>
	<g>
		<path d="M497,326h-26V106c0-16.542-13.458-30-30-30H71c-16.542,0-30,13.458-30,30v220H15c-8.284,0-15,6.716-15,15v65
			c0,16.542,13.458,30,30,30h452c16.542,0,30-13.458,30-30v-65C512,332.716,505.284,326,497,326z M71,106h370v220H71V106z M482,406
			H30v-50c7.618,0,153.663,0,161.301,0c1.39,6.846,7.442,12,14.699,12h100c7.257,0,13.309-5.154,14.699-12
			c7.642,0,153.698,0,161.305,0l0.015,49.999C482.019,405.999,482.013,406,482,406z"/>
	</g>
</g>
<g>
</g>
<g>
</g>
<g>
</g>
<g>
</g>
<g>
</g>
<g>
</g>
<g>
</g>
<g>
</g>
<g>
</g>
<g>
</g>
<g>
</g>
<g>
</g>
<g>
</g>
<g>
</g>
<g>
</g>
</svg>
