<?xml version="1.0" encoding="iso-8859-1"?>
<!-- Generator: Adobe Illustrator 19.0.0, SVG Export Plug-In . SVG Version: 6.00 Build 0)  -->
<svg version="1.1" id="Capa_1" xmlns="http://www.w3.org/2000/svg" xmlns:xlink="http://www.w3.org/1999/xlink" x="0px" y="0px"
	 viewBox="0 0 512 512" style="enable-background:new 0 0 512 512;" xml:space="preserve">
<g>
	<g>
		<path d="M381,211h-15v-35c0-19.899-12.988-36.812-30.929-42.735l-9.115-119.407C325.359,6.04,318.842,0,311,0H171
			c-7.842,0-14.359,6.04-14.956,13.858l-9.115,119.407C128.988,139.188,116,156.101,116,176v160
			c0,19.899,12.988,36.812,30.929,42.735l9.115,119.407C156.641,505.96,163.158,512,171,512h140c7.842,0,14.359-6.04,14.956-13.858
			l9.115-119.407C353.012,372.812,366,355.899,366,336v-35h15c8.284,0,15-6.716,15-15v-60C396,217.716,389.284,211,381,211z
			 M184.898,30h112.203l7.71,101H177.188L184.898,30z M297.102,482H184.898l-7.71-101h127.623L297.102,482z M336,336
			c0,8.271-6.729,15-15,15H161c-8.271,0-15-6.729-15-15V176c0-8.271,6.729-15,15-15h160c8.271,0,15,6.729,15,15
			C336,262.481,336,265.213,336,336z"/>
	</g>
</g>
<g>
	<g>
		<path d="M241,211c-8.284,0-15,6.716-15,15v30c0,8.284,6.716,15,15,15s15-6.716,15-15v-30C256,217.716,249.284,211,241,211z"/>
	</g>
</g>
<g>
</g>
<g>
</g>
<g>
</g>
<g>
</g>
<g>
</g>
<g>
</g>
<g>
</g>
<g>
</g>
<g>
</g>
<g>
</g>
<g>
</g>
<g>
</g>
<g>
</g>
<g>
</g>
<g>
</g>
</svg>
