<?xml version="1.0" encoding="iso-8859-1"?>
<!-- Generator: Adobe Illustrator 19.0.0, SVG Export Plug-In . SVG Version: 6.00 Build 0)  -->
<svg version="1.1" id="Capa_1" xmlns="http://www.w3.org/2000/svg" xmlns:xlink="http://www.w3.org/1999/xlink" x="0px" y="0px"
	 viewBox="0 0 512 512" style="enable-background:new 0 0 512 512;" xml:space="preserve">
<g>
	<g>
		<path d="M296,261h-80c-8.284,0-15,6.716-15,15s6.716,15,15,15h80c8.284,0,15-6.716,15-15S304.284,261,296,261z"/>
	</g>
</g>
<g>
	<g>
		<path d="M326,121H186c-8.284,0-15,6.716-15,15s6.716,15,15,15h140c8.284,0,15-6.716,15-15S334.284,121,326,121z"/>
	</g>
</g>
<g>
	<g>
		<path d="M326,191H186c-8.284,0-15,6.716-15,15s6.716,15,15,15h140c8.284,0,15-6.716,15-15S334.284,191,326,191z"/>
	</g>
</g>
<g>
	<g>
		<path d="M476.5,380H371v-31.58c17.459-6.192,30-22.865,30-42.42V106c0-24.813-20.187-45-45-45H156c-24.813,0-45,20.187-45,45v200
			c0,19.555,12.541,36.228,30,42.42V380H35.5C15.925,380,0,395.925,0,415.5S15.925,451,35.5,451H186c8.284,0,15-6.716,15-15
			c0-9.651,0-74.324,0-85h110c0,10.677,0,75.351,0,85c0,8.284,6.716,15,15,15h150.5c19.575,0,35.5-15.925,35.5-35.5
			S496.075,380,476.5,380z M171,421H35.5c-3.033,0-5.5-2.467-5.5-5.5c0-3.033,2.467-5.5,5.5-5.5c5.593,0,129.636,0,135.5,0V421z
			 M156,321c-8.271,0-15-6.729-15-15V106c0-8.271,6.729-15,15-15h200c8.271,0,15,6.729,15,15v200c0,8.271-6.729,15-15,15
			C346.616,321,163.82,321,156,321z M476.5,421H341v-11c5.864,0,129.907,0,135.5,0c3.032,0,5.5,2.467,5.5,5.5
			C482,418.533,479.532,421,476.5,421z"/>
	</g>
</g>
<g>
</g>
<g>
</g>
<g>
</g>
<g>
</g>
<g>
</g>
<g>
</g>
<g>
</g>
<g>
</g>
<g>
</g>
<g>
</g>
<g>
</g>
<g>
</g>
<g>
</g>
<g>
</g>
<g>
</g>
</svg>
