<?xml version="1.0" encoding="iso-8859-1"?>
<!-- Generator: Adobe Illustrator 19.0.0, SVG Export Plug-In . SVG Version: 6.00 Build 0)  -->
<svg version="1.1" id="Capa_1" xmlns="http://www.w3.org/2000/svg" xmlns:xlink="http://www.w3.org/1999/xlink" x="0px" y="0px"
	 viewBox="0 0 512 512" style="enable-background:new 0 0 512 512;" xml:space="preserve">
<g>
	<g>
		<path d="M376.578,49.95C344.195,17.739,301.373,0,256,0s-88.195,17.739-120.578,49.95c-5.874,5.842-5.899,15.34-0.057,21.213
			c5.842,5.874,15.34,5.9,21.213,0.057C183.302,44.639,218.61,30,256,30s72.698,14.639,99.422,41.22
			c5.876,5.845,15.374,5.815,21.213-0.057C382.477,65.29,382.452,55.792,376.578,49.95z"/>
	</g>
</g>
<g>
	<g>
		<path d="M334.289,97.35C313.542,75.725,285.739,63.815,256,63.815s-57.542,11.909-78.289,33.534
			c-5.735,5.979-5.538,15.474,0.44,21.209c5.978,5.735,15.473,5.538,21.208-0.439C214.395,102.446,234.51,93.815,256,93.815
			s41.605,8.631,56.641,24.304c5.734,5.977,15.229,6.175,21.208,0.44C339.827,112.824,340.024,103.329,334.289,97.35z"/>
	</g>
</g>
<g>
	<g>
		<path d="M292.746,145.896c-8.865-11.608-22.258-18.265-36.746-18.265c-14.488,0-27.881,6.657-36.746,18.265
			c-5.028,6.584-3.767,15.997,2.817,21.025c6.583,5.028,15.997,3.767,21.025-2.816c3.142-4.114,7.845-6.474,12.904-6.474
			c5.059,0,9.762,2.359,12.904,6.474c5.031,6.588,14.448,7.842,21.025,2.816C296.513,161.893,297.774,152.48,292.746,145.896z"/>
	</g>
</g>
<g>
	<g>
		<path d="M254.51,212.01c-57.289,0.798-103.723,48.075-103.509,105.39c0.121,32.195,14.931,62.301,40,82.065V482
			c0,16.542,13.458,30,30,30h70c16.542,0,30-13.458,30-30v-82.534c25.189-19.854,40-50.108,40-82.466
			C361,258.668,313.472,211.204,254.51,212.01z M291,482h-70v-35h70V482z M297.656,379.375c-4.159,2.784-6.656,7.46-6.656,12.465
			V417h-70v-25.16c0-5.005-2.497-9.681-6.656-12.465c-20.786-13.914-33.25-37.124-33.344-62.087
			c-0.153-40.94,33.011-74.711,73.927-75.28c0.36-0.006,0.717-0.008,1.076-0.008c41.41,0,74.997,33.496,74.997,75
			C331,342.08,318.535,365.398,297.656,379.375z"/>
	</g>
</g>
<g>
	<g>
		<path d="M282.708,312.584c-7.41-3.706-16.42-0.702-20.125,6.708L256,332.459l-6.583-13.167
			c-3.706-7.409-12.716-10.414-20.125-6.708c-7.41,3.704-10.413,12.715-6.708,20.124l20,40C245.125,377.79,250.318,381,256,381
			c5.682,0,10.875-3.21,13.417-8.292l20-40C293.121,325.299,290.118,316.288,282.708,312.584z"/>
	</g>
</g>
<g>
</g>
<g>
</g>
<g>
</g>
<g>
</g>
<g>
</g>
<g>
</g>
<g>
</g>
<g>
</g>
<g>
</g>
<g>
</g>
<g>
</g>
<g>
</g>
<g>
</g>
<g>
</g>
<g>
</g>
</svg>
