<?xml version="1.0" encoding="iso-8859-1"?>
<!-- Generator: Adobe Illustrator 19.0.0, SVG Export Plug-In . SVG Version: 6.00 Build 0)  -->
<svg version="1.1" id="Capa_1" xmlns="http://www.w3.org/2000/svg" xmlns:xlink="http://www.w3.org/1999/xlink" x="0px" y="0px"
	 viewBox="0 0 512 512" style="enable-background:new 0 0 512 512;" xml:space="preserve">
<g>
	<g>
		<path d="M437,0H75C33.645,0,0,33.645,0,75v362c0,41.355,33.645,75,75,75h362c41.355,0,75-33.645,75-75V75
			C512,33.645,478.355,0,437,0z M482,437c0,24.813-20.187,45-45,45H75c-24.813,0-45-20.187-45-45V75c0-24.813,20.187-45,45-45h362
			c24.813,0,45,20.187,45,45V437z"/>
	</g>
</g>
<g>
	<g>
		<path d="M256,91c-74.439,0-135,60.561-135,135v180c0,8.284,6.716,15,15,15s15-6.716,15-15V226c0-57.897,47.103-105,105-105
			c57.897,0,105,47.103,105,105v180c0,8.284,6.716,15,15,15s15-6.716,15-15V226C391,151.561,330.439,91,256,91z"/>
	</g>
</g>
<g>
	<g>
		<path d="M256,141c-46.869,0-85,38.131-85,85v130c0,8.284,6.716,15,15,15s15-6.716,15-15V226c0-30.327,24.673-55,55-55
			c30.327,0,55,24.673,55,55v130c0,8.284,6.716,15,15,15s15-6.716,15-15V226C341,179.131,302.869,141,256,141z"/>
	</g>
</g>
<g>
	<g>
		<path d="M256,191c-19.299,0-35,15.701-35,35v80c0,8.284,6.716,15,15,15s15-6.716,15-15v-80c0-2.757,2.243-5,5-5s5,2.243,5,5v60
			c0,8.284,6.716,15,15,15s15-6.716,15-15v-60C291,206.701,275.299,191,256,191z"/>
	</g>
</g>
<g>
	<g>
		<path d="M276,323c-8.284,0-15,6.716-15,15v18c0,8.284,6.716,15,15,15s15-6.716,15-15v-18C291,329.716,284.284,323,276,323z"/>
	</g>
</g>
<g>
</g>
<g>
</g>
<g>
</g>
<g>
</g>
<g>
</g>
<g>
</g>
<g>
</g>
<g>
</g>
<g>
</g>
<g>
</g>
<g>
</g>
<g>
</g>
<g>
</g>
<g>
</g>
<g>
</g>
</svg>
