<?xml version="1.0" encoding="iso-8859-1"?>
<!-- Generator: Adobe Illustrator 19.0.0, SVG Export Plug-In . SVG Version: 6.00 Build 0)  -->
<svg version="1.1" id="Capa_1" xmlns="http://www.w3.org/2000/svg" xmlns:xlink="http://www.w3.org/1999/xlink" x="0px" y="0px"
	 viewBox="0 0 512 512" style="enable-background:new 0 0 512 512;" xml:space="preserve">
<g>
	<g>
		<path d="M421,222.284V165C421,74.019,346.981,0,256,0S91,74.019,91,165v57.284C68.532,224.781,51,243.878,51,267v200
			c0,24.813,20.187,45,45,45h320c24.813,0,45-20.187,45-45V267C461,243.878,443.468,224.781,421,222.284z M121,165
			c0-74.439,60.561-135,135-135s135,60.561,135,135v57H121V165z M431,467c0,8.271-6.729,15-15,15H96c-8.271,0-15-6.729-15-15v-85
			h122.096c6.547,23.057,27.777,40,52.904,40c25.127,0,46.356-16.943,52.904-40H431V467z M231,367c0-13.785,11.215-25,25-25
			c13.785,0,25,11.215,25,25c0,13.785-11.215,25-25,25C242.215,392,231,380.785,231,367z M431,352H308.904
			c-6.547-23.057-27.777-40-52.904-40c-25.127,0-46.356,16.943-52.904,40H81v-85c0-8.271,6.729-15,15-15c15.048,0,301.569,0,320,0
			c8.271,0,15,6.729,15,15V352z"/>
	</g>
</g>
<g>
</g>
<g>
</g>
<g>
</g>
<g>
</g>
<g>
</g>
<g>
</g>
<g>
</g>
<g>
</g>
<g>
</g>
<g>
</g>
<g>
</g>
<g>
</g>
<g>
</g>
<g>
</g>
<g>
</g>
</svg>
