<?xml version="1.0" encoding="iso-8859-1"?>
<!-- Generator: Adobe Illustrator 19.0.0, SVG Export Plug-In . SVG Version: 6.00 Build 0)  -->
<svg version="1.1" id="Capa_1" xmlns="http://www.w3.org/2000/svg" xmlns:xlink="http://www.w3.org/1999/xlink" x="0px" y="0px"
	 viewBox="0 0 512 512" style="enable-background:new 0 0 512 512;" xml:space="preserve">
<g>
	<g>
		<path d="M391.313,252.37c-49.875-11.292-75.06-21.986-125.888-63.039c-5.498-4.441-13.351-4.441-18.85,0
			c-50.827,41.053-76.012,51.747-125.887,63.039C113.853,253.918,109,259.992,109,267c0,136.641,46.72,216.587,142.829,244.408
			c2.725,0.789,5.617,0.789,8.342,0C356.28,483.587,403,403.641,403,267C403,259.992,398.147,253.918,391.313,252.37z M256,481.336
			C166.427,453.309,141.194,372.5,139.129,278.849c43.809-10.764,71.695-23.356,116.87-58.684
			c44.699,34.966,72.574,47.716,116.872,58.672C370.809,372.432,345.61,453.298,256,481.336z"/>
	</g>
</g>
<g>
	<g>
		<path d="M256,274c-27.57,0-50,22.43-50,50c0,12.596,4.665,24.502,13,33.641V409c0,8.284,6.716,15,15,15h44c8.284,0,15-6.716,15-15
			v-51.359c8.335-9.139,13-21.046,13-33.641C306,296.43,283.57,274,256,274z M268.571,339.554
			c-3.523,2.848-5.571,7.136-5.571,11.666V394h-14v-42.78c0-4.53-2.048-8.818-5.571-11.666C238.708,335.738,236,330.069,236,324
			c0-11.028,8.972-20,20-20s20,8.972,20,20C276,330.068,273.292,335.738,268.571,339.554z"/>
	</g>
</g>
<g>
	<g>
		<path d="M376.578,49.95C344.195,17.739,301.373,0,256,0s-88.195,17.739-120.578,49.95c-5.874,5.842-5.899,15.34-0.057,21.213
			c5.841,5.873,15.339,5.9,21.213,0.057C183.302,44.639,218.61,30,256,30c37.391,0,72.699,14.639,99.422,41.22
			c5.873,5.842,15.371,5.818,21.213-0.057C382.478,65.29,382.452,55.792,376.578,49.95z"/>
	</g>
</g>
<g>
	<g>
		<path d="M334.289,97.35C313.542,75.725,285.739,63.815,256,63.815s-57.542,11.909-78.289,33.534
			c-5.735,5.979-5.538,15.474,0.44,21.209c5.978,5.735,15.473,5.537,21.208-0.439C214.395,102.446,234.51,93.815,256,93.815
			c21.489,0,41.605,8.631,56.641,24.304c5.731,5.974,15.225,6.178,21.209,0.44C339.828,112.824,340.025,103.329,334.289,97.35z"/>
	</g>
</g>
<g>
	<g>
		<path d="M292.746,145.897c-8.863-11.609-22.257-18.266-36.746-18.266c-14.488,0-27.881,6.657-36.746,18.265
			c-5.028,6.584-3.767,15.997,2.817,21.025c6.583,5.029,15.997,3.767,21.025-2.816c3.142-4.114,7.845-6.474,12.904-6.474
			c5.06,0,9.763,2.359,12.903,6.473c5.029,6.584,14.442,7.845,21.025,2.818C296.512,161.894,297.774,152.481,292.746,145.897z"/>
	</g>
</g>
<g>
</g>
<g>
</g>
<g>
</g>
<g>
</g>
<g>
</g>
<g>
</g>
<g>
</g>
<g>
</g>
<g>
</g>
<g>
</g>
<g>
</g>
<g>
</g>
<g>
</g>
<g>
</g>
<g>
</g>
</svg>
