<?xml version="1.0" encoding="iso-8859-1"?>
<!-- Generator: Adobe Illustrator 19.0.0, SVG Export Plug-In . SVG Version: 6.00 Build 0)  -->
<svg version="1.1" id="Capa_1" xmlns="http://www.w3.org/2000/svg" xmlns:xlink="http://www.w3.org/1999/xlink" x="0px" y="0px"
	 viewBox="0 0 512 512" style="enable-background:new 0 0 512 512;" xml:space="preserve">
<g>
	<g>
		<path d="M376.578,49.95C344.195,17.739,301.373,0,256,0s-88.195,17.739-120.578,49.95c-5.874,5.842-5.899,15.34-0.057,21.213
			c5.843,5.874,15.34,5.9,21.213,0.057C183.302,44.639,218.61,30,256,30s72.698,14.639,99.422,41.22
			c5.876,5.845,15.374,5.815,21.213-0.057C382.477,65.29,382.452,55.792,376.578,49.95z"/>
	</g>
</g>
<g>
	<g>
		<path d="M334.289,97.35C313.542,75.725,285.739,63.815,256,63.815s-57.542,11.909-78.289,33.534
			c-5.735,5.979-5.538,15.474,0.44,21.209c5.978,5.735,15.473,5.537,21.208-0.439C214.395,102.446,234.51,93.815,256,93.815
			s41.605,8.631,56.641,24.304c5.734,5.977,15.229,6.175,21.208,0.44C339.827,112.824,340.024,103.329,334.289,97.35z"/>
	</g>
</g>
<g>
	<g>
		<path d="M292.746,145.896c-8.865-11.608-22.258-18.265-36.746-18.265c-14.488,0-27.881,6.657-36.746,18.265
			c-5.028,6.584-3.767,15.997,2.817,21.025c6.583,5.029,15.997,3.766,21.025-2.816c3.142-4.114,7.845-6.474,12.904-6.474
			s9.762,2.359,12.904,6.474c5.031,6.588,14.448,7.842,21.025,2.816C296.513,161.893,297.774,152.48,292.746,145.896z"/>
	</g>
</g>
<g>
	<g>
		<path d="M352,192H160C71.776,192,0,263.775,0,352s71.776,160,160,160h192c88.224,0,160-71.775,160-160S440.224,192,352,192z
			 M352,482H160c-71.682,0-130-58.317-130-130s58.318-130,130-130h192c71.682,0,130,58.317,130,130S423.682,482,352,482z"/>
	</g>
</g>
<g>
	<g>
		<path d="M350,243H162c-8.284,0-15,6.716-15,15v188c0,8.284,6.716,15,15,15h188c8.284,0,15-6.716,15-15V258
			C365,249.716,358.284,243,350,243z M335,431H177V273h158V431z"/>
	</g>
</g>
<g>
	<g>
		<path d="M114,344h-10v-10c0-8.284-6.716-15-15-15s-15,6.716-15,15v10H64c-8.284,0-15,6.716-15,15s6.716,15,15,15h10v10
			c0,8.284,6.716,15,15,15s15-6.716,15-15v-10h10c8.284,0,15-6.716,15-15S122.284,344,114,344z"/>
	</g>
</g>
<g>
	<g>
		<circle cx="410" cy="366" r="15"/>
	</g>
</g>
<g>
	<g>
		<circle cx="438" cy="338" r="15"/>
	</g>
</g>
<g>
</g>
<g>
</g>
<g>
</g>
<g>
</g>
<g>
</g>
<g>
</g>
<g>
</g>
<g>
</g>
<g>
</g>
<g>
</g>
<g>
</g>
<g>
</g>
<g>
</g>
<g>
</g>
<g>
</g>
</svg>
