<?xml version="1.0" encoding="iso-8859-1"?>
<!-- Generator: Adobe Illustrator 19.0.0, SVG Export Plug-In . SVG Version: 6.00 Build 0)  -->
<svg version="1.1" id="Capa_1" xmlns="http://www.w3.org/2000/svg" xmlns:xlink="http://www.w3.org/1999/xlink" x="0px" y="0px"
	 viewBox="0 0 512 512" style="enable-background:new 0 0 512 512;" xml:space="preserve">
<g>
	<g>
		<path d="M376.577,49.951C344.196,17.74,301.374,0,256,0c-45.374,0-88.196,17.74-120.577,49.951
			c-5.874,5.842-5.898,15.34-0.057,21.213c5.843,5.873,15.341,5.899,21.213,0.056C183.301,44.639,218.61,30,256,30
			s72.699,14.639,99.421,41.22c5.873,5.842,15.369,5.818,21.213-0.056C382.476,65.29,382.451,55.793,376.577,49.951z"/>
	</g>
</g>
<g>
	<g>
		<path d="M334.288,97.35C313.542,75.725,285.738,63.815,256,63.815c-29.738,0-57.541,11.909-78.288,33.534
			c-5.735,5.978-5.538,15.473,0.439,21.208c5.978,5.736,15.474,5.539,21.209-0.439c15.036-15.672,35.151-24.303,56.64-24.303
			s41.604,8.631,56.64,24.303c5.742,5.984,15.237,6.17,21.209,0.44C339.827,112.823,340.024,103.328,334.288,97.35z"/>
	</g>
</g>
<g>
	<g>
		<path d="M292.745,145.896c-8.863-11.608-22.257-18.266-36.745-18.266c-14.488,0-27.882,6.658-36.747,18.266
			c-5.027,6.584-3.766,15.997,2.818,21.025c6.583,5.027,15.998,3.767,21.025-2.818c3.142-4.114,7.845-6.473,12.903-6.473
			c5.059,0,9.762,2.359,12.903,6.473c5.032,6.589,14.446,7.843,21.025,2.818C296.511,161.893,297.773,152.48,292.745,145.896z"/>
	</g>
</g>
<g>
	<g>
		<path d="M456.668,461.577c-5.918-48.938-17.676-137.246-23.273-181.273C430.546,257.896,411.403,241,388.865,241H123.136
			c-22.538,0-41.682,16.896-44.531,39.303c-5.557,43.723-17.358,132.361-23.273,181.273C52.093,488.369,72.979,512,99.897,512
			h27.943c17.199,0,32.618-9.6,40.241-25.054L205.542,411h100.915l37.462,75.946C351.542,502.4,366.961,512,384.16,512h27.943
			C439.026,512,459.906,488.362,456.668,461.577z M412.103,482H384.16c-5.693,0-10.804-3.19-13.337-8.326l-41.588-84.31
			c-2.526-5.122-7.741-8.364-13.452-8.364H196.216c-5.711,0-10.926,3.243-13.452,8.364l-41.588,84.31
			c-2.533,5.136-7.643,8.326-13.337,8.326H99.897c-8.937,0-15.869-7.842-14.782-16.822c5.898-48.768,17.611-136.728,23.25-181.092
			c0.949-7.46,7.299-13.086,14.771-13.086h265.729c7.472,0,13.821,5.626,14.77,13.086c5.591,44,17.337,132.2,23.25,181.091
			C427.972,474.159,421.039,482,412.103,482z"/>
	</g>
</g>
<g>
	<g>
		<path d="M191.001,311h-10v-10c0-8.284-6.716-15-15-15s-15,6.716-15,15v10h-10c-8.284,0-15,6.716-15,15s6.716,15,15,15h10v10
			c0,8.284,6.716,15,15,15s15-6.716,15-15v-10h10c8.284,0,15-6.716,15-15S199.285,311,191.001,311z"/>
	</g>
</g>
<g>
	<g>
		<circle cx="333" cy="342" r="15"/>
	</g>
</g>
<g>
	<g>
		<circle cx="361" cy="314" r="15"/>
	</g>
</g>
<g>
</g>
<g>
</g>
<g>
</g>
<g>
</g>
<g>
</g>
<g>
</g>
<g>
</g>
<g>
</g>
<g>
</g>
<g>
</g>
<g>
</g>
<g>
</g>
<g>
</g>
<g>
</g>
<g>
</g>
</svg>
