<?xml version="1.0" encoding="iso-8859-1"?>
<!-- Generator: Adobe Illustrator 19.0.0, SVG Export Plug-In . SVG Version: 6.00 Build 0)  -->
<svg version="1.1" id="Capa_1" xmlns="http://www.w3.org/2000/svg" xmlns:xlink="http://www.w3.org/1999/xlink" x="0px" y="0px"
	 viewBox="0 0 512 512" style="enable-background:new 0 0 512 512;" xml:space="preserve">
<g>
	<g>
		<path d="M497,70h-54.384l6.89-26.183c1.184-4.499,0.214-9.292-2.626-12.976C444.04,27.158,439.651,25,435,25H110
			C49.346,25,0,74.346,0,135s49.346,110,110,110h81v35c0,8.284,6.716,15,15,15h35v96c0,8.271-6.729,15-15,15H121v-36
			c0-8.284-6.716-15-15-15H15c-8.284,0-15,6.716-15,15v102c0,8.284,6.716,15,15,15h91c8.284,0,15-6.716,15-15v-36h105
			c24.813,0,45-20.187,45-45v-96h35c8.284,0,15-6.716,15-15v-35h64c6.814,0,12.772-4.593,14.506-11.183L408.405,200H497
			c8.284,0,15-6.716,15-15V85C512,76.716,505.284,70,497,70z M91,457H30v-72h61V457z M291,265h-70v-20h70V265z M373.437,215
			c-7.015,0-256.376,0-263.437,0c-44.112,0-80-35.888-80-80s35.888-80,80-80h305.542C413.75,61.81,375.752,206.203,373.437,215z
			 M482,170h-65.7l18.421-70H482V170z"/>
	</g>
</g>
<g>
	<g>
		<circle cx="89" cy="135" r="15"/>
	</g>
</g>
<g>
</g>
<g>
</g>
<g>
</g>
<g>
</g>
<g>
</g>
<g>
</g>
<g>
</g>
<g>
</g>
<g>
</g>
<g>
</g>
<g>
</g>
<g>
</g>
<g>
</g>
<g>
</g>
<g>
</g>
</svg>
