<?xml version="1.0" encoding="iso-8859-1"?>
<!-- Generator: Adobe Illustrator 19.0.0, SVG Export Plug-In . SVG Version: 6.00 Build 0)  -->
<svg version="1.1" id="Capa_1" xmlns="http://www.w3.org/2000/svg" xmlns:xlink="http://www.w3.org/1999/xlink" x="0px" y="0px"
	 viewBox="0 0 512 512" style="enable-background:new 0 0 512 512;" xml:space="preserve">
<g>
	<g>
		<path d="M497,46.5H15c-8.284,0-15,6.716-15,15v300c0,8.284,6.716,15,15,15h226v59H126c-8.284,0-15,6.716-15,15s6.716,15,15,15h260
			c8.284,0,15-6.716,15-15s-6.716-15-15-15H271v-59h226c8.284,0,15-6.716,15-15v-300C512,53.216,505.284,46.5,497,46.5z M482,346.5
			H30v-270h452V346.5z"/>
	</g>
</g>
<g>
	<g>
		<path d="M301,150.5h-90c-8.284,0-15,6.716-15,15v90c0,8.284,6.716,15,15,15h90c8.284,0,15-6.716,15-15v-90
			C316,157.216,309.284,150.5,301,150.5z M286,240.5h-60v-60h60V240.5z"/>
	</g>
</g>
<g>
	<g>
		<path d="M437,150.5h-90c-8.284,0-15,6.716-15,15v90c0,8.284,6.716,15,15,15h90c8.284,0,15-6.716,15-15v-90
			C452,157.216,445.284,150.5,437,150.5z M422,240.5h-60v-60h60V240.5z"/>
	</g>
</g>
<g>
	<g>
		<path d="M165,150.5H75c-8.284,0-15,6.716-15,15v90c0,8.284,6.716,15,15,15h90c8.284,0,15-6.716,15-15v-90
			C180,157.216,173.284,150.5,165,150.5z M150,240.5H90v-60h60V240.5z"/>
	</g>
</g>
<g>
</g>
<g>
</g>
<g>
</g>
<g>
</g>
<g>
</g>
<g>
</g>
<g>
</g>
<g>
</g>
<g>
</g>
<g>
</g>
<g>
</g>
<g>
</g>
<g>
</g>
<g>
</g>
<g>
</g>
</svg>
