<?xml version="1.0" encoding="iso-8859-1"?>
<!-- Generator: Adobe Illustrator 19.0.0, SVG Export Plug-In . SVG Version: 6.00 Build 0)  -->
<svg version="1.1" id="Capa_1" xmlns="http://www.w3.org/2000/svg" xmlns:xlink="http://www.w3.org/1999/xlink" x="0px" y="0px"
	 viewBox="0 0 512 512" style="enable-background:new 0 0 512 512;" xml:space="preserve">
<g>
	<g>
		<path d="M382.965,325.715c-4.939-2.589-10.91-2.224-15.498,0.948L256,403.762l-111.467-77.099
			c-4.589-3.172-10.558-3.537-15.498-0.948c-4.94,2.59-8.035,7.707-8.035,13.285v158c0,8.284,6.716,15,15,15h240
			c8.284,0,15-6.716,15-15V339C391,333.422,387.905,328.305,382.965,325.715z M361,482H151V367.613l96.467,66.724
			c5.135,3.551,11.932,3.551,17.066,0L361,367.613V482z"/>
	</g>
</g>
<g>
	<g>
		<path d="M376,216c-11.046,0-230.238,0-240,0c-8.284,0-15,6.716-15,15v30c0,24.813,20.187,45,45,45h34c24.813,0,45-20.187,45-45
			v-15h17v15c0,24.813,20.187,45,45,45h39c24.813,0,45-20.187,45-45v-30C391,222.716,384.284,216,376,216z M215,261
			c0,8.271-6.729,15-15,15h-34c-8.271,0-15-6.729-15-15v-15h64V261z M361,261c0,8.271-6.729,15-15,15h-39c-8.271,0-15-6.729-15-15
			v-15h69V261z"/>
	</g>
</g>
<g>
	<g>
		<path d="M446,168h-55v-33C391,60.561,330.439,0,256,0S121,60.561,121,135v33H66c-8.284,0-15,6.716-15,15s6.716,15,15,15
			c4.463,0,356.731,0,380,0c8.284,0,15-6.716,15-15S454.284,168,446,168z M256,30c52.805,0,96.631,39.183,103.932,90H152.068
			C159.369,69.183,203.195,30,256,30z M361,168H151v-18h210V168z"/>
	</g>
</g>
<g>
</g>
<g>
</g>
<g>
</g>
<g>
</g>
<g>
</g>
<g>
</g>
<g>
</g>
<g>
</g>
<g>
</g>
<g>
</g>
<g>
</g>
<g>
</g>
<g>
</g>
<g>
</g>
<g>
</g>
</svg>
