<?xml version="1.0" encoding="iso-8859-1"?>
<!-- Generator: Adobe Illustrator 19.0.0, SVG Export Plug-In . SVG Version: 6.00 Build 0)  -->
<svg version="1.1" id="Capa_1" xmlns="http://www.w3.org/2000/svg" xmlns:xlink="http://www.w3.org/1999/xlink" x="0px" y="0px"
	 viewBox="0 0 512 512" style="enable-background:new 0 0 512 512;" xml:space="preserve">
<g>
	<g>
		<path d="M462.049,135.422c-5.842-5.873-15.339-5.898-21.213-0.057c-5.874,5.842-5.899,15.34-0.057,21.213
			C467.361,183.301,482,218.61,482,256s-14.639,72.699-41.22,99.422c-5.842,5.873-5.817,15.371,0.057,21.213
			c5.872,5.842,15.37,5.817,21.213-0.057C494.26,344.195,512,301.373,512,256S494.26,167.805,462.049,135.422z"/>
	</g>
</g>
<g>
	<g>
		<path d="M414.651,177.711c-5.978-5.736-15.474-5.539-21.208,0.439c-5.735,5.978-5.539,15.473,0.439,21.208
			c15.672,15.037,24.303,35.152,24.303,56.641c0,21.489-8.631,41.604-24.303,56.641c-5.978,5.735-6.174,15.23-0.439,21.208
			c5.733,5.976,15.228,6.176,21.208,0.439c21.625-20.747,33.534-48.55,33.534-78.289S436.275,198.459,414.651,177.711z"/>
	</g>
</g>
<g>
	<g>
		<path d="M366.104,219.254c-6.584-5.029-15.997-3.767-21.025,2.817c-5.028,6.583-3.767,15.997,2.817,21.025
			c4.114,3.142,6.474,7.845,6.474,12.904c0,5.059-2.359,9.762-6.474,12.904c-6.584,5.028-7.845,14.442-2.817,21.025
			c5.029,6.585,14.442,7.845,21.025,2.817c11.608-8.865,18.266-22.258,18.266-36.746
			C384.37,241.512,377.712,228.119,366.104,219.254z"/>
	</g>
</g>
<g>
	<g>
		<path d="M200,258.661V65c0-35.841-29.159-65-65-65S70,29.159,70,65v193.659C26.76,282.444-0.423,328.346,0.005,378.184
			C0.637,451.652,60.734,512,135.02,512C209.528,512,270,451.72,270,377C270,327.67,242.824,282.233,200,258.661z M100,65
			c0-19.299,15.701-35,35-35s35,15.701,35,35v118h-70V65z M135.007,482c-57.433,0-104.513-47.122-105.003-104.074
			c-0.355-41.322,23.688-79.164,61.253-96.406c5.328-2.445,8.743-7.77,8.743-13.632V213h70v54.888
			c0,5.862,3.415,11.187,8.743,13.632C215.955,298.601,240,336.079,240,377C240,435.54,192.536,482.003,135.007,482z"/>
	</g>
</g>
<g>
</g>
<g>
</g>
<g>
</g>
<g>
</g>
<g>
</g>
<g>
</g>
<g>
</g>
<g>
</g>
<g>
</g>
<g>
</g>
<g>
</g>
<g>
</g>
<g>
</g>
<g>
</g>
<g>
</g>
</svg>
