<?xml version="1.0" encoding="iso-8859-1"?>
<!-- Generator: Adobe Illustrator 19.0.0, SVG Export Plug-In . SVG Version: 6.00 Build 0)  -->
<svg version="1.1" id="Capa_1" xmlns="http://www.w3.org/2000/svg" xmlns:xlink="http://www.w3.org/1999/xlink" x="0px" y="0px"
	 viewBox="0 0 512 512" style="enable-background:new 0 0 512 512;" xml:space="preserve">
<g>
	<g>
		<path d="M351,136.58V15c0-8.284-6.716-15-15-15H176c-8.284,0-15,6.716-15,15v121.58c-17.459,6.192-30,22.865-30,42.42v160
			c0,24.813,20.187,45,45,45h30v113c0,8.284,6.716,15,15,15h70c8.284,0,15-6.716,15-15V384h30c24.813,0,45-20.187,45-45V179
			C381,159.445,368.459,142.772,351,136.58z M191,30h130v104H191V30z M276,482h-40v-98h40V482z M351,339c0,8.271-6.729,15-15,15
			c-7.411,0-151.441,0-160,0c-8.271,0-15-6.729-15-15V179c0-8.271,6.729-15,15-15h160c8.271,0,15,6.729,15,15V339z"/>
	</g>
</g>
<g>
	<g>
		<path d="M229,51c-8.284,0-15,6.716-15,15v32c0,8.284,6.716,15,15,15s15-6.716,15-15V66C244,57.716,237.284,51,229,51z"/>
	</g>
</g>
<g>
	<g>
		<path d="M283,51c-8.284,0-15,6.716-15,15v32c0,8.284,6.716,15,15,15s15-6.716,15-15V66C298,57.716,291.284,51,283,51z"/>
	</g>
</g>
<g>
	<g>
		<circle cx="256" cy="310" r="15"/>
	</g>
</g>
<g>
</g>
<g>
</g>
<g>
</g>
<g>
</g>
<g>
</g>
<g>
</g>
<g>
</g>
<g>
</g>
<g>
</g>
<g>
</g>
<g>
</g>
<g>
</g>
<g>
</g>
<g>
</g>
<g>
</g>
</svg>
