<?xml version="1.0" encoding="iso-8859-1"?>
<!-- Generator: Adobe Illustrator 19.0.0, SVG Export Plug-In . SVG Version: 6.00 Build 0)  -->
<svg version="1.1" id="Capa_1" xmlns="http://www.w3.org/2000/svg" xmlns:xlink="http://www.w3.org/1999/xlink" x="0px" y="0px"
	 viewBox="0 0 512 512" style="enable-background:new 0 0 512 512;" xml:space="preserve">
<g>
	<g>
		<path d="M497,186c-10.135,0-470.93,0-482,0c-8.284,0-15,6.716-15,15v45c0,8.284,6.716,15,15,15h36v20c0,24.813,20.187,45,45,45
			h100c24.813,0,45-20.187,45-45v-65h30v65c0,24.813,20.187,45,45,45h100c24.813,0,45-20.187,45-45v-20h36c8.284,0,15-6.716,15-15
			v-45C512,192.716,505.284,186,497,186z M30,231v-15h101v15C120.101,231,40.917,231,30,231z M211,281c0,8.271-6.729,15-15,15H96
			c-8.271,0-15-6.729-15-15v-20h65c8.284,0,15-6.716,15-15v-30h50V281z M431,281c0,8.271-6.729,15-15,15H316
			c-8.271,0-15-6.729-15-15v-65h130C431,223.515,431,270.48,431,281z M482,231h-21v-15h21V231z"/>
	</g>
</g>
<g>
</g>
<g>
</g>
<g>
</g>
<g>
</g>
<g>
</g>
<g>
</g>
<g>
</g>
<g>
</g>
<g>
</g>
<g>
</g>
<g>
</g>
<g>
</g>
<g>
</g>
<g>
</g>
<g>
</g>
</svg>
