<?xml version="1.0" encoding="iso-8859-1"?>
<!-- Generator: Adobe Illustrator 19.0.0, SVG Export Plug-In . SVG Version: 6.00 Build 0)  -->
<svg version="1.1" id="Capa_1" xmlns="http://www.w3.org/2000/svg" xmlns:xlink="http://www.w3.org/1999/xlink" x="0px" y="0px"
	 viewBox="0 0 512 512" style="enable-background:new 0 0 512 512;" xml:space="preserve">
<g>
	<g>
		<path d="M256,130c-41.355,0-75,33.645-75,75s33.645,75,75,75s75-33.645,75-75S297.355,130,256,130z M256,250
			c-24.813,0-45-20.187-45-45s20.187-45,45-45s45,20.187,45,45S280.813,250,256,250z"/>
	</g>
</g>
<g>
	<g>
		<circle cx="256" cy="205" r="15"/>
	</g>
</g>
<g>
	<g>
		<path d="M455.505,434.396l-78.323-64.158C427.971,332.891,461,272.734,461,205C461,91.963,369.037,0,256,0S51,91.963,51,205
			c0,67.734,33.029,127.891,83.818,165.239l-78.323,64.158C53.017,437.245,51,441.504,51,446v51c0,8.284,6.716,15,15,15h380
			c8.284,0,15-6.716,15-15v-51C461,441.504,458.983,437.245,455.505,434.396z M81,205c0-96.495,78.505-175,175-175
			s175,78.505,175,175s-78.505,175-175,175S81,301.495,81,205z M431,482H81v-28.897l80.71-66.114
			C189.954,401.682,222.022,410,256,410c33.978,0,66.045-8.318,94.29-23.011L431,453.103V482z"/>
	</g>
</g>
<g>
</g>
<g>
</g>
<g>
</g>
<g>
</g>
<g>
</g>
<g>
</g>
<g>
</g>
<g>
</g>
<g>
</g>
<g>
</g>
<g>
</g>
<g>
</g>
<g>
</g>
<g>
</g>
<g>
</g>
</svg>
