<?xml version="1.0" encoding="iso-8859-1"?>
<!-- Generator: Adobe Illustrator 19.0.0, SVG Export Plug-In . SVG Version: 6.00 Build 0)  -->
<svg version="1.1" id="Capa_1" xmlns="http://www.w3.org/2000/svg" xmlns:xlink="http://www.w3.org/1999/xlink" x="0px" y="0px"
	 viewBox="0 0 512 512" style="enable-background:new 0 0 512 512;" xml:space="preserve">
<g>
	<g>
		<path d="M256,0c-74.439,0-135,60.561-135,135c0,52.692,22.12,104.554,63.968,149.977c31.153,33.813,62.13,52.19,63.434,52.957
			c4.688,2.754,10.505,2.756,15.197,0c1.303-0.767,32.28-19.144,63.434-52.957C368.88,239.554,391,187.692,391,135
			C391,60.561,330.439,0,256,0z M256,307.118C230.704,289.766,151,227.716,151,135c0-57.897,47.103-105,105-105
			c57.897,0,105,47.103,105,105C361,205.45,313.812,267.497,256,307.118z"/>
	</g>
</g>
<g>
	<g>
		<path d="M296,396h-80c-8.284,0-15,6.716-15,15s6.716,15,15,15h80c8.284,0,15-6.716,15-15S304.284,396,296,396z"/>
	</g>
</g>
<g>
	<g>
		<path d="M326,482H186c-8.284,0-15,6.716-15,15s6.716,15,15,15h140c8.284,0,15-6.716,15-15S334.284,482,326,482z"/>
	</g>
</g>
<g>
	<g>
		<path d="M256,80c-30.327,0-55,24.673-55,55c0,30.327,24.673,55,55,55c30.327,0,55-24.673,55-55C311,104.673,286.327,80,256,80z
			 M256,160c-13.785,0-25-11.215-25-25c0-13.785,11.215-25,25-25c13.785,0,25,11.215,25,25C281,148.785,269.785,160,256,160z"/>
	</g>
</g>
<g>
</g>
<g>
</g>
<g>
</g>
<g>
</g>
<g>
</g>
<g>
</g>
<g>
</g>
<g>
</g>
<g>
</g>
<g>
</g>
<g>
</g>
<g>
</g>
<g>
</g>
<g>
</g>
<g>
</g>
</svg>
