<?xml version="1.0" encoding="iso-8859-1"?>
<!-- Generator: Adobe Illustrator 19.0.0, SVG Export Plug-In . SVG Version: 6.00 Build 0)  -->
<svg version="1.1" id="Capa_1" xmlns="http://www.w3.org/2000/svg" xmlns:xlink="http://www.w3.org/1999/xlink" x="0px" y="0px"
	 viewBox="0 0 512 512" style="enable-background:new 0 0 512 512;" xml:space="preserve">
<g>
	<g>
		<path d="M435.977,296.297l-172-108c-4.877-3.063-11.076-3.063-15.953,0l-172,108C71.653,299.041,69,303.839,69,309v188
			c0,8.284,6.716,15,15,15h69c8.284,0,15-6.716,15-15v-62h176v62c0,8.284,6.716,15,15,15h69c8.284,0,15-6.716,15-15V309
			C443,303.839,440.347,299.041,435.977,296.297z M344,405H168v-46h176V405z M413,482h-39c0-4.465,0-133.488,0-138
			c0-8.284-6.716-15-15-15H153c-8.284,0-15,6.716-15,15c0,4.511,0,133.535,0,138H99V317.293l157-98.581l157,98.581V482z"/>
	</g>
</g>
<g>
	<g>
		<circle cx="256" cy="382" r="15"/>
	</g>
</g>
<g>
	<g>
		<path d="M376.578,49.95C344.195,17.739,301.373,0,256,0s-88.195,17.739-120.578,49.95c-5.874,5.842-5.899,15.34-0.057,21.213
			c5.841,5.873,15.339,5.9,21.213,0.057C183.302,44.639,218.61,30,256,30c37.391,0,72.699,14.639,99.422,41.22
			c5.873,5.841,15.371,5.817,21.213-0.057C382.478,65.29,382.452,55.792,376.578,49.95z"/>
	</g>
</g>
<g>
	<g>
		<path d="M334.289,97.35C313.542,75.725,285.739,63.815,256,63.815s-57.542,11.909-78.289,33.534
			c-5.735,5.979-5.538,15.474,0.44,21.209c5.978,5.735,15.473,5.537,21.208-0.439C214.395,102.446,234.51,93.815,256,93.815
			c21.489,0,41.605,8.631,56.641,24.304c5.731,5.974,15.225,6.178,21.209,0.44C339.828,112.824,340.025,103.329,334.289,97.35z"/>
	</g>
</g>
<g>
	<g>
		<path d="M292.746,145.897c-8.863-11.609-22.257-18.266-36.746-18.266c-14.488,0-27.881,6.657-36.746,18.265
			c-5.028,6.584-3.767,15.997,2.817,21.025c6.583,5.029,15.997,3.767,21.025-2.816c3.142-4.114,7.845-6.474,12.904-6.474
			c5.06,0,9.763,2.359,12.903,6.473c5.029,6.585,14.442,7.845,21.025,2.818C296.512,161.894,297.774,152.481,292.746,145.897z"/>
	</g>
</g>
<g>
</g>
<g>
</g>
<g>
</g>
<g>
</g>
<g>
</g>
<g>
</g>
<g>
</g>
<g>
</g>
<g>
</g>
<g>
</g>
<g>
</g>
<g>
</g>
<g>
</g>
<g>
</g>
<g>
</g>
</svg>
