<?xml version="1.0" encoding="iso-8859-1"?>
<!-- Generator: Adobe Illustrator 19.0.0, SVG Export Plug-In . SVG Version: 6.00 Build 0)  -->
<svg version="1.1" id="Capa_1" xmlns="http://www.w3.org/2000/svg" xmlns:xlink="http://www.w3.org/1999/xlink" x="0px" y="0px"
	 viewBox="0 0 512 512" style="enable-background:new 0 0 512 512;" xml:space="preserve">
<g>
	<g>
		<path d="M396,206.5H116c-8.284,0-15,6.716-15,15v120c0,8.284,6.716,15,15,15h280c8.284,0,15-6.716,15-15v-120
			C411,213.216,404.284,206.5,396,206.5z M381,326.5H131v-90h250V326.5z"/>
	</g>
</g>
<g>
	<g>
		<path d="M502.477,216.535l-41.508-16.278C460.306,176.018,440.397,156.5,416,156.5h-89.77l-16.265-41.476
			c-2.253-5.745-7.794-9.524-13.965-9.524h-80c-6.171,0-11.712,3.779-13.964,9.524L185.771,156.5H96
			c-24.396,0-44.306,19.518-44.969,43.758L9.523,216.535C3.779,218.788,0,224.329,0,230.5v100c0,6.171,3.779,11.712,9.523,13.965
			L51,360.73v0.77c0,24.813,20.187,45,45,45h320c24.813,0,45-20.187,45-45v-0.77l41.477-16.265
			c5.744-2.253,9.523-7.794,9.523-13.965v-100C512,224.329,508.221,218.788,502.477,216.535z M51,328.506l-21-8.236v-79.54l21-8.235
			V328.506z M226.23,135.5h59.541l8.235,21h-76.011L226.23,135.5z M431,361.5c0,8.271-6.729,15-15,15H96c-8.271,0-15-6.729-15-15
			c0-6.336,0-149.802,0-160c0-8.271,6.729-15,15-15c9.499,0,306.153,0,320,0c8.271,0,15,6.729,15,15
			C431,205.668,431,358.91,431,361.5z M482,320.27l-21,8.235v-96.011l21,8.235V320.27z"/>
	</g>
</g>
<g>
	<g>
		<path d="M316,266.5H196c-8.284,0-15,6.716-15,15s6.716,15,15,15h120c8.284,0,15-6.716,15-15S324.284,266.5,316,266.5z"/>
	</g>
</g>
<g>
</g>
<g>
</g>
<g>
</g>
<g>
</g>
<g>
</g>
<g>
</g>
<g>
</g>
<g>
</g>
<g>
</g>
<g>
</g>
<g>
</g>
<g>
</g>
<g>
</g>
<g>
</g>
<g>
</g>
</svg>
