<?xml version="1.0" encoding="iso-8859-1"?>
<!-- Generator: Adobe Illustrator 19.0.0, SVG Export Plug-In . SVG Version: 6.00 Build 0)  -->
<svg version="1.1" id="Capa_1" xmlns="http://www.w3.org/2000/svg" xmlns:xlink="http://www.w3.org/1999/xlink" x="0px" y="0px"
	 viewBox="0 0 512 512" style="enable-background:new 0 0 512 512;" xml:space="preserve">
<g>
	<g>
		<path d="M439.063,257l46.508,54.715c5.368,6.317,14.837,7.075,21.144,1.714c6.312-5.365,7.079-14.831,1.714-21.144l-51-60
			C454.579,228.933,450.4,227,446,227h-55v-47h55c4.4,0,8.579-1.933,11.429-5.285l51-60c5.365-6.313,4.598-15.778-1.714-21.144
			c-6.312-5.366-15.778-4.599-21.144,1.714L439.063,150H391v-15C391,60.561,330.439,0,256,0S121,60.561,121,135v15H72.937
			L26.429,95.285c-5.365-6.314-14.833-7.079-21.144-1.714c-6.312,5.365-7.079,14.831-1.714,21.144l51,60
			C57.421,178.067,61.6,180,66,180h55v47H66c-4.4,0-8.579,1.933-11.429,5.285l-51,60c-5.365,6.313-4.598,15.778,1.714,21.144
			c6.309,5.364,15.777,4.6,21.144-1.714L72.937,257H121v75H66c-4.4,0-8.579,1.933-11.429,5.285l-51,60
			c-5.365,6.313-4.598,15.778,1.714,21.144c6.309,5.364,15.777,4.6,21.144-1.714L72.937,362H121v15c0,74.439,60.561,135,135,135
			s135-60.561,135-135v-15h48.063l46.508,54.715c5.368,6.317,14.837,7.075,21.144,1.714c6.312-5.365,7.079-14.831,1.714-21.144
			l-51-60C454.579,333.933,450.4,332,446,332h-55v-75H439.063z M241,480.924c-50.817-7.301-90-51.119-90-103.924V150h90V480.924z
			 M152.076,120C159.377,69.183,203.195,30,256,30s96.623,39.183,103.924,90H152.076z M361,377c0,52.805-39.183,96.623-90,103.924
			V150h90V377z"/>
	</g>
</g>
<g>
</g>
<g>
</g>
<g>
</g>
<g>
</g>
<g>
</g>
<g>
</g>
<g>
</g>
<g>
</g>
<g>
</g>
<g>
</g>
<g>
</g>
<g>
</g>
<g>
</g>
<g>
</g>
<g>
</g>
</svg>
