<?xml version="1.0" encoding="iso-8859-1"?>
<!-- Generator: Adobe Illustrator 19.0.0, SVG Export Plug-In . SVG Version: 6.00 Build 0)  -->
<svg version="1.1" id="Capa_1" xmlns="http://www.w3.org/2000/svg" xmlns:xlink="http://www.w3.org/1999/xlink" x="0px" y="0px"
	 viewBox="0 0 512 512" style="enable-background:new 0 0 512 512;" xml:space="preserve">
<g>
	<g>
		<path d="M376.578,49.95C344.195,17.74,301.373,0,256,0s-88.195,17.74-120.578,49.951c-5.874,5.842-5.899,15.34-0.057,21.213
			c5.843,5.874,15.34,5.899,21.213,0.056C183.301,44.639,218.61,30,256,30s72.699,14.639,99.422,41.22
			c5.872,5.842,15.37,5.817,21.213-0.057C382.477,65.29,382.452,55.792,376.578,49.95z"/>
	</g>
</g>
<g>
	<g>
		<path d="M334.289,97.35C313.542,75.725,285.738,63.815,256,63.815c-29.738,0-57.542,11.909-78.289,33.534
			c-5.735,5.978-5.539,15.473,0.439,21.208c5.978,5.736,15.474,5.539,21.208-0.439c15.037-15.672,35.152-24.303,56.641-24.303
			c21.489,0,41.604,8.631,56.641,24.303c5.738,5.981,15.233,6.173,21.21,0.44C339.828,112.823,340.024,103.328,334.289,97.35z"/>
	</g>
</g>
<g>
	<g>
		<path d="M292.746,145.896c-8.865-11.608-22.258-18.266-36.746-18.266c-14.488,0-27.881,6.658-36.746,18.266
			c-5.028,6.583-3.767,15.997,2.817,21.025c6.583,5.027,15.997,3.767,21.025-2.817c3.142-4.114,7.845-6.474,12.904-6.474
			s9.762,2.359,12.904,6.474c5.033,6.59,14.447,7.841,21.025,2.817C296.513,161.893,297.774,152.479,292.746,145.896z"/>
	</g>
</g>
<g>
	<g>
		<path d="M461,216c0-8.284-6.716-15-15-15H66c-8.284,0-15,6.716-15,15c0,89.251,57.338,165.349,137.107,193.43l-35.839,81.534
			C147.918,500.86,155.178,512,166,512h180c10.81,0,18.087-11.129,13.732-21.036l-35.839-81.534
			C403.662,381.349,461,305.251,461,216z M81.637,231h348.726c-0.877,10.278-2.656,20.301-5.239,30H86.876
			C84.293,251.301,82.514,241.278,81.637,231z M188.979,482l26.813-61h80.416l26.813,61H188.979z M256,391
			c-69.669,0-129.953-40.929-158.091-100h316.182C385.953,350.071,325.669,391,256,391z"/>
	</g>
</g>
<g>
</g>
<g>
</g>
<g>
</g>
<g>
</g>
<g>
</g>
<g>
</g>
<g>
</g>
<g>
</g>
<g>
</g>
<g>
</g>
<g>
</g>
<g>
</g>
<g>
</g>
<g>
</g>
<g>
</g>
</svg>
