<?xml version="1.0" encoding="iso-8859-1"?>
<!-- Generator: Adobe Illustrator 19.0.0, SVG Export Plug-In . SVG Version: 6.00 Build 0)  -->
<svg version="1.1" id="Capa_1" xmlns="http://www.w3.org/2000/svg" xmlns:xlink="http://www.w3.org/1999/xlink" x="0px" y="0px"
	 viewBox="0 0 512 512" style="enable-background:new 0 0 512 512;" xml:space="preserve">
<g>
	<g>
		<path d="M376.578,49.95C344.195,17.739,301.373,0,256,0s-88.195,17.739-120.578,49.95c-5.874,5.842-5.899,15.34-0.057,21.213
			c5.843,5.874,15.341,5.9,21.213,0.057C183.301,44.639,218.609,30,256,30s72.699,14.639,99.422,41.22
			c5.876,5.844,15.374,5.815,21.213-0.057C382.478,65.29,382.452,55.792,376.578,49.95z"/>
	</g>
</g>
<g>
	<g>
		<path d="M334.289,97.35C313.542,75.725,285.739,63.815,256,63.815s-57.542,11.909-78.289,33.534
			c-5.735,5.979-5.538,15.474,0.439,21.209c5.979,5.735,15.474,5.537,21.209-0.439C214.394,102.446,234.51,93.815,256,93.815
			s41.605,8.631,56.641,24.304c5.731,5.974,15.225,6.178,21.209,0.44C339.828,112.824,340.025,103.329,334.289,97.35z"/>
	</g>
</g>
<g>
	<g>
		<path d="M292.745,145.897c-8.862-11.609-22.256-18.266-36.745-18.266s-27.883,6.657-36.747,18.266
			c-5.027,6.584-3.766,15.997,2.818,21.025c6.583,5.026,15.998,3.767,21.025-2.818c3.141-4.113,7.844-6.473,12.903-6.473
			c5.059,0,9.763,2.359,12.903,6.473c5.03,6.585,14.442,7.846,21.025,2.818C296.511,161.894,297.773,152.481,292.745,145.897z"/>
	</g>
</g>
<g>
	<g>
		<path d="M446,240h-75v-35c0-8.284-6.716-15-15-15H156c-8.284,0-15,6.716-15,15v35H66c-8.284,0-15,6.716-15,15v191
			c0,8.284,6.716,15,15,15h75v36c0,8.284,6.716,15,15,15h200c8.284,0,15-6.716,15-15v-36h75c8.284,0,15-6.716,15-15V255
			C461,246.716,454.284,240,446,240z M171,220h170c0,13.909,0,20.872,0,40H171C171,240.384,171,234.4,171,220z M341,482H171
			c0-10.293,0-82.067,0-91h170C341,399.843,341,470.069,341,482z M431,431h-60v-55c0-8.284-6.716-15-15-15H156
			c-8.284,0-15,6.716-15,15v55H81v-98h350V431z M431,303H81v-33h60v5c0,8.284,6.716,15,15,15h200c8.284,0,15-6.716,15-15v-5h60V303z
			"/>
	</g>
</g>
<g>
</g>
<g>
</g>
<g>
</g>
<g>
</g>
<g>
</g>
<g>
</g>
<g>
</g>
<g>
</g>
<g>
</g>
<g>
</g>
<g>
</g>
<g>
</g>
<g>
</g>
<g>
</g>
<g>
</g>
</svg>
