<?xml version="1.0" encoding="iso-8859-1"?>
<!-- Generator: Adobe Illustrator 19.0.0, SVG Export Plug-In . SVG Version: 6.00 Build 0)  -->
<svg version="1.1" id="Capa_1" xmlns="http://www.w3.org/2000/svg" xmlns:xlink="http://www.w3.org/1999/xlink" x="0px" y="0px"
	 viewBox="0 0 512 512" style="enable-background:new 0 0 512 512;" xml:space="preserve">
<g>
	<g>
		<path d="M401,0H111C86.187,0,66,20.187,66,45v422c0,24.813,20.187,45,45,45h290c24.813,0,45-20.187,45-45V45
			C446,20.187,425.813,0,401,0z M416,467c0,8.271-6.729,15-15,15H111c-8.271,0-15-6.729-15-15V45c0-8.271,6.729-15,15-15h290
			c8.271,0,15,6.729,15,15V467z"/>
	</g>
</g>
<g>
	<g>
		<path d="M371,60H141c-8.284,0-15,6.716-15,15v120c0,8.284,6.716,15,15,15h230c8.284,0,15-6.716,15-15V75
			C386,66.716,379.284,60,371,60z M356,180H156V90h200V180z"/>
	</g>
</g>
<g>
	<g>
		<path d="M256,242c-57.897,0-105,47.103-105,105c0,57.897,47.103,105,105,105c57.897,0,105-47.103,105-105
			C361,289.103,313.897,242,256,242z M256,422c-41.355,0-75-33.645-75-75c0-41.355,33.645-75,75-75s75,33.645,75,75
			C331,388.355,297.355,422,256,422z"/>
	</g>
</g>
<g>
	<g>
		<path d="M256,302c-24.813,0-45,20.187-45,45s20.187,45,45,45s45-20.187,45-45S280.813,302,256,302z M256,362
			c-8.271,0-15-6.729-15-15s6.729-15,15-15s15,6.729,15,15S264.271,362,256,362z"/>
	</g>
</g>
<g>
</g>
<g>
</g>
<g>
</g>
<g>
</g>
<g>
</g>
<g>
</g>
<g>
</g>
<g>
</g>
<g>
</g>
<g>
</g>
<g>
</g>
<g>
</g>
<g>
</g>
<g>
</g>
<g>
</g>
</svg>
