<?xml version="1.0" encoding="iso-8859-1"?>
<!-- Generator: Adobe Illustrator 19.0.0, SVG Export Plug-In . SVG Version: 6.00 Build 0)  -->
<svg version="1.1" id="Capa_1" xmlns="http://www.w3.org/2000/svg" xmlns:xlink="http://www.w3.org/1999/xlink" x="0px" y="0px"
	 viewBox="0 0 512 512" style="enable-background:new 0 0 512 512;" xml:space="preserve">
<g>
	<g>
		<path d="M452,76c-33.084,0-60,27.916-60,61v204c0,8.284,6.716,15,15,15h30v50h-15c-8.284,0-15,6.716-15,15s6.716,15,15,15h60
			c8.284,0,15-6.716,15-15s-6.716-15-15-15h-15v-50h30c8.284,0,15-6.716,15-15V136C512,102.916,485.084,76,452,76z M482,326h-60V136
			c0-16.542,13.458-30,30-30s30,13.458,30,30V326z"/>
	</g>
</g>
<g>
	<g>
		<circle cx="452" cy="140" r="15"/>
	</g>
</g>
<g>
	<g>
		<circle cx="452" cy="183" r="15"/>
	</g>
</g>
<g>
	<g>
		<path d="M460,277h-16c-8.284,0-15,6.716-15,15s6.716,15,15,15h16c8.284,0,15-6.716,15-15S468.284,277,460,277z"/>
	</g>
</g>
<g>
	<g>
		<path d="M460,230h-16c-8.284,0-15,6.716-15,15s6.716,15,15,15h16c8.284,0,15-6.716,15-15S468.284,230,460,230z"/>
	</g>
</g>
<g>
	<g>
		<path d="M60,76c-33.084,0-60,26.916-60,60v205c0,8.284,6.716,15,15,15h30v50H30c-8.284,0-15,6.716-15,15s6.716,15,15,15h60
			c8.284,0,15-6.716,15-15s-6.716-15-15-15H75v-50h30c8.284,0,15-6.716,15-15V136C120,102.916,93.084,76,60,76z M90,326H30V136
			c0-16.542,13.458-30,30-30s30,13.458,30,30V326z"/>
	</g>
</g>
<g>
	<g>
		<circle cx="60" cy="140" r="15"/>
	</g>
</g>
<g>
	<g>
		<path d="M60,168c-8.284,0-15,6.716-15,15s6.716,16,15,16s15-7.716,15-16S68.284,168,60,168z"/>
	</g>
</g>
<g>
	<g>
		<path d="M68,277H52c-8.284,0-15,6.716-15,15s6.716,15,15,15h16c8.284,0,15-6.716,15-15S76.284,277,68,277z"/>
	</g>
</g>
<g>
	<g>
		<path d="M68,230H52c-8.284,0-15,6.716-15,15s6.716,15,15,15h16c8.284,0,15-6.716,15-15S76.284,230,68,230z"/>
	</g>
</g>
<g>
	<g>
		<path d="M356,256c8.284,0,15-6.716,15-15V91c0-8.284-6.716-15-15-15H156c-8.284,0-15,6.716-15,15v150c0,8.284,6.716,15,15,15h85
			v21h-85c-8.284,0-15,6.716-15,15c0,4.897,0,122.324,0,129c0,8.284,6.716,15,15,15s15-6.716,15-15v-20h170v20
			c0,8.284,6.716,15,15,15s15-6.716,15-15c0-6.616,0-124.091,0-129c0-8.284-6.716-15-15-15h-85v-21H356z M341,307v64H171v-64H341z
			 M171,226V106h170v120H171z"/>
	</g>
</g>
<g>
	<g>
		<circle cx="256" cy="339" r="15"/>
	</g>
</g>
<g>
</g>
<g>
</g>
<g>
</g>
<g>
</g>
<g>
</g>
<g>
</g>
<g>
</g>
<g>
</g>
<g>
</g>
<g>
</g>
<g>
</g>
<g>
</g>
<g>
</g>
<g>
</g>
<g>
</g>
</svg>
