<?xml version="1.0" encoding="iso-8859-1"?>
<!-- Generator: Adobe Illustrator 19.0.0, SVG Export Plug-In . SVG Version: 6.00 Build 0)  -->
<svg version="1.1" id="Capa_1" xmlns="http://www.w3.org/2000/svg" xmlns:xlink="http://www.w3.org/1999/xlink" x="0px" y="0px"
	 viewBox="0 0 512 512" style="enable-background:new 0 0 512 512;" xml:space="preserve">
<g>
	<g>
		<path d="M351,242H161c-8.284,0-15,6.716-15,15v52c0,8.284,6.716,15,15,15h35v22c-8.284,0-15,6.716-15,15v136
			c0,8.284,6.716,15,15,15h120c8.284,0,15-6.716,15-15V361c0-8.284-6.716-15-15-15v-22h35c8.284,0,15-6.716,15-15v-52
			C366,248.716,359.284,242,351,242z M301,482h-90v-21h90V482z M301,431h-90v-55h90V431z M226,346v-22h60v22H226z M336,294
			c-3.733,0-155.164,0-160,0v-22h160V294z"/>
	</g>
</g>
<g>
	<g>
		<path d="M256,0c-8.284,0-15,6.716-15,15v161c0,8.284,6.716,15,15,15s15-6.716,15-15V15C271,6.716,264.284,0,256,0z"/>
	</g>
</g>
<g>
	<g>
		<path d="M209.825,188.807L95.588,74.962c-5.866-5.847-15.364-5.83-21.213,0.036c-5.848,5.868-5.831,15.366,0.036,21.214
			l114.237,113.845c5.864,5.844,15.361,5.835,21.213-0.037C215.709,204.153,215.692,194.655,209.825,188.807z"/>
	</g>
</g>
<g>
	<g>
		<path d="M437.625,74.998c-5.849-5.868-15.347-5.884-21.213-0.036L302.175,188.807c-5.867,5.848-5.884,15.346-0.036,21.213
			c5.848,5.87,15.347,5.884,21.213,0.037L437.589,96.212C443.456,90.364,443.473,80.866,437.625,74.998z"/>
	</g>
</g>
<g>
</g>
<g>
</g>
<g>
</g>
<g>
</g>
<g>
</g>
<g>
</g>
<g>
</g>
<g>
</g>
<g>
</g>
<g>
</g>
<g>
</g>
<g>
</g>
<g>
</g>
<g>
</g>
<g>
</g>
</svg>
