<?xml version="1.0" encoding="iso-8859-1"?>
<!-- Generator: Adobe Illustrator 19.0.0, SVG Export Plug-In . SVG Version: 6.00 Build 0)  -->
<svg version="1.1" id="Capa_1" xmlns="http://www.w3.org/2000/svg" xmlns:xlink="http://www.w3.org/1999/xlink" x="0px" y="0px"
	 viewBox="0 0 512 512" style="enable-background:new 0 0 512 512;" xml:space="preserve">
<g>
	<g>
		<path d="M416,0H96C71.187,0,51,20.187,51,45v422c0,24.813,20.187,45,45,45h320c24.813,0,45-20.187,45-45V45
			C461,20.187,440.813,0,416,0z M431,467c0,8.271-6.729,15-15,15H96c-8.271,0-15-6.729-15-15V45c0-8.271,6.729-15,15-15h320
			c8.271,0,15,6.729,15,15V467z"/>
	</g>
</g>
<g>
	<g>
		<path d="M396,71H116c-8.284,0-15,6.716-15,15v320c0,8.284,6.716,15,15,15h280c8.284,0,15-6.716,15-15V86
			C411,77.716,404.284,71,396,71z M381,391H131V101h250V391z"/>
	</g>
</g>
<g>
	<g>
		<path d="M276,436h-40c-8.284,0-15,6.716-15,15s6.716,15,15,15h40c8.284,0,15-6.716,15-15S284.284,436,276,436z"/>
	</g>
</g>
<g>
	<g>
		<path d="M296,231h-80c-8.284,0-15,6.716-15,15s6.716,15,15,15h80c8.284,0,15-6.716,15-15S304.284,231,296,231z"/>
	</g>
</g>
<g>
	<g>
		<path d="M326,161H186c-8.284,0-15,6.716-15,15s6.716,15,15,15h140c8.284,0,15-6.716,15-15S334.284,161,326,161z"/>
	</g>
</g>
<g>
	<g>
		<path d="M326,301H186c-8.284,0-15,6.716-15,15s6.716,15,15,15h140c8.284,0,15-6.716,15-15S334.284,301,326,301z"/>
	</g>
</g>
<g>
</g>
<g>
</g>
<g>
</g>
<g>
</g>
<g>
</g>
<g>
</g>
<g>
</g>
<g>
</g>
<g>
</g>
<g>
</g>
<g>
</g>
<g>
</g>
<g>
</g>
<g>
</g>
<g>
</g>
</svg>
