<?xml version="1.0" encoding="iso-8859-1"?>
<!-- Generator: Adobe Illustrator 19.0.0, SVG Export Plug-In . SVG Version: 6.00 Build 0)  -->
<svg version="1.1" id="Capa_1" xmlns="http://www.w3.org/2000/svg" xmlns:xlink="http://www.w3.org/1999/xlink" x="0px" y="0px"
	 viewBox="0 0 512 512" style="enable-background:new 0 0 512 512;" xml:space="preserve">
<g>
	<g>
		<path d="M401,0H111C94.458,0,81,13.458,81,30c0,18.667,0,432.127,0,452c0,16.542,13.458,30,30,30h290c16.542,0,30-13.458,30-30
			c0-19.873,0-433.333,0-452C431,13.458,417.542,0,401,0z M111,30h290l0.002,61H111V30z M111,121h290v270H111V121z M401,482H111v-61
			h290.016l0.002,60.999C401.019,481.999,401.013,482,401,482z"/>
	</g>
</g>
<g>
	<g>
		<path d="M296,46h-80c-8.284,0-15,6.716-15,15s6.716,15,15,15h80c8.284,0,15-6.716,15-15S304.284,46,296,46z"/>
	</g>
</g>
<g>
	<g>
		<circle cx="256" cy="452" r="15"/>
	</g>
</g>
<g>
</g>
<g>
</g>
<g>
</g>
<g>
</g>
<g>
</g>
<g>
</g>
<g>
</g>
<g>
</g>
<g>
</g>
<g>
</g>
<g>
</g>
<g>
</g>
<g>
</g>
<g>
</g>
<g>
</g>
</svg>
