<?xml version="1.0" encoding="iso-8859-1"?>
<!-- Generator: Adobe Illustrator 19.0.0, SVG Export Plug-In . SVG Version: 6.00 Build 0)  -->
<svg version="1.1" id="Capa_1" xmlns="http://www.w3.org/2000/svg" xmlns:xlink="http://www.w3.org/1999/xlink" x="0px" y="0px"
	 viewBox="0 0 512 512" style="enable-background:new 0 0 512 512;" xml:space="preserve">
<g>
	<g>
		<path d="M401,0H111C94.458,0,81,13.458,81,30c0,18.667,0,432.127,0,452c0,16.542,13.458,30,30,30h290c16.542,0,30-13.458,30-30
			c0-19.873,0-433.333,0-452C431,13.458,417.542,0,401,0z M401,482H111l-0.002-61H401V482z M401,391H111V121h290V391z M401,91
			H110.984l-0.002-60.999c-0.001,0,0.005-0.001,0.018-0.001h290V91z"/>
	</g>
</g>
<g>
	<g>
		<path d="M276,436h-40c-8.284,0-15,6.716-15,15s6.716,15,15,15h40c8.284,0,15-6.716,15-15S284.284,436,276,436z"/>
	</g>
</g>
<g>
	<g>
		<path d="M376.578,220.951C344.196,188.74,301.374,171,256,171c-45.374,0-88.196,17.74-120.578,49.951
			c-5.874,5.842-5.898,15.34-0.057,21.213c5.843,5.873,15.341,5.899,21.213,0.056C183.301,215.639,218.609,201,256,201
			s72.699,14.639,99.422,41.22c5.873,5.842,15.369,5.818,21.213-0.056C382.477,236.29,382.452,226.793,376.578,220.951z"/>
	</g>
</g>
<g>
	<g>
		<path d="M334.289,268.349c-20.747-21.624-48.551-33.534-78.289-33.534c-29.738,0-57.542,11.909-78.289,33.534
			c-5.735,5.978-5.538,15.473,0.439,21.208c5.979,5.735,15.474,5.539,21.209-0.439c15.036-15.672,35.151-24.303,56.641-24.303
			s41.604,8.631,56.641,24.303c5.741,5.983,15.236,6.17,21.209,0.439C339.828,283.822,340.025,274.327,334.289,268.349z"/>
	</g>
</g>
<g>
	<g>
		<path d="M292.745,316.896c-8.863-11.608-22.257-18.266-36.745-18.266c-14.488,0-27.882,6.658-36.747,18.266
			c-5.027,6.584-3.766,15.997,2.818,21.025c6.583,5.028,15.998,3.767,21.025-2.818c3.142-4.114,7.845-6.473,12.903-6.473
			c5.058,0,9.762,2.359,12.903,6.473c5.032,6.589,14.446,7.843,21.025,2.818C296.511,332.893,297.773,323.48,292.745,316.896z"/>
	</g>
</g>
<g>
</g>
<g>
</g>
<g>
</g>
<g>
</g>
<g>
</g>
<g>
</g>
<g>
</g>
<g>
</g>
<g>
</g>
<g>
</g>
<g>
</g>
<g>
</g>
<g>
</g>
<g>
</g>
<g>
</g>
</svg>
