<?xml version="1.0" encoding="iso-8859-1"?>
<!-- Generator: Adobe Illustrator 19.0.0, SVG Export Plug-In . SVG Version: 6.00 Build 0)  -->
<svg version="1.1" id="Capa_1" xmlns="http://www.w3.org/2000/svg" xmlns:xlink="http://www.w3.org/1999/xlink" x="0px" y="0px"
	 viewBox="0 0 512 512" style="enable-background:new 0 0 512 512;" xml:space="preserve">
<g>
	<g>
		<path d="M421,341h-13.097l-20.629-88.409C385.69,245.803,379.638,241,372.667,241H139.333c-6.971,0-13.023,4.803-14.607,11.591
			L104.097,341H91c-22.056,0-40,17.944-40,40c0,22.056,17.944,40,40,40h10c0,7.221,0,68.278,0,76c0,8.284,6.716,15,15,15h79
			c8.284,0,15-6.716,15-15v-36c9.245,0,82.739,0,92,0v36c0,8.284,6.716,15,15,15h79c8.284,0,15-6.716,15-15c0-7.719,0-68.778,0-76
			h10c22.056,0,40-17.944,40-40C461,358.944,443.056,341,421,341z M101,391H91c-5.514,0-10-4.486-10-10c0-5.514,4.486-10,10-10h10
			V391z M151.236,271h209.527l16.333,70H134.903L151.236,271z M180,482h-49v-21h49V482z M271,431h-30v-15h30V431z M381,482h-49v-21
			h49V482z M381,431c-33.083,0-46.88,0-80,0v-30c0-8.284-6.716-15-15-15h-60c-8.284,0-15,6.716-15,15v30c-33.111,0-46.898,0-80,0
			c0-5.625,0-35.683,0-60h250C381,385.289,381,425.647,381,431z M421,391h-10v-20h10c5.514,0,10,4.486,10,10
			C431,386.514,426.514,391,421,391z"/>
	</g>
</g>
<g>
	<g>
		<path d="M376.578,49.95C344.195,17.74,301.373,0,256,0s-88.195,17.74-120.578,49.951c-5.874,5.842-5.899,15.34-0.057,21.213
			c5.843,5.873,15.34,5.899,21.213,0.056C183.301,44.639,218.61,30,256,30s72.699,14.639,99.422,41.22
			c5.872,5.842,15.37,5.817,21.213-0.057C382.477,65.29,382.452,55.792,376.578,49.95z"/>
	</g>
</g>
<g>
	<g>
		<path d="M334.289,97.35C313.542,75.725,285.738,63.815,256,63.815c-29.738,0-57.542,11.909-78.289,33.534
			c-5.735,5.978-5.539,15.473,0.439,21.208c5.978,5.735,15.474,5.539,21.208-0.439c15.037-15.672,35.152-24.303,56.641-24.303
			c21.489,0,41.604,8.631,56.641,24.303c5.738,5.981,15.233,6.173,21.21,0.44C339.828,112.823,340.024,103.328,334.289,97.35z"/>
	</g>
</g>
<g>
	<g>
		<path d="M292.746,145.896c-8.865-11.608-22.258-18.266-36.746-18.266c-14.488,0-27.881,6.658-36.746,18.266
			c-5.028,6.583-3.767,15.997,2.817,21.025c6.583,5.028,15.997,3.767,21.025-2.817c3.142-4.114,7.845-6.474,12.904-6.474
			s9.762,2.359,12.904,6.474c5.033,6.59,14.447,7.841,21.025,2.817C296.513,161.893,297.774,152.479,292.746,145.896z"/>
	</g>
</g>
<g>
</g>
<g>
</g>
<g>
</g>
<g>
</g>
<g>
</g>
<g>
</g>
<g>
</g>
<g>
</g>
<g>
</g>
<g>
</g>
<g>
</g>
<g>
</g>
<g>
</g>
<g>
</g>
<g>
</g>
</svg>
