<?xml version="1.0" encoding="iso-8859-1"?>
<!-- Generator: Adobe Illustrator 19.0.0, SVG Export Plug-In . SVG Version: 6.00 Build 0)  -->
<svg version="1.1" id="Capa_1" xmlns="http://www.w3.org/2000/svg" xmlns:xlink="http://www.w3.org/1999/xlink" x="0px" y="0px"
	 viewBox="0 0 512 512" style="enable-background:new 0 0 512 512;" xml:space="preserve">
<g>
	<g>
		<path d="M437,0c-23.676,0-45.927,11.309-59.986,30H194.986C180.925,11.308,158.675,0,135,0C93.645,0,60,33.645,60,75
			c0,23.676,11.309,45.927,30,59.986v234.696C36.463,388.543,0,439.324,0,497c0,8.284,6.716,15,15,15h80c8.284,0,15-6.716,15-15
			c0-13.785,11.215-25,25-25c13.785,0,25,11.215,25,25c0,8.284,6.716,15,15,15h80c8.284,0,15-6.716,15-15
			c0-57.677-36.464-108.458-90-127.318V134.995c5.682-4.264,10.734-9.317,14.996-14.995h182.018c14.061,18.692,36.311,30,59.986,30
			c41.355,0,75-33.645,75-75S478.355,0,437,0z M238.932,482h-51.011c-6.545-23.061-27.792-40-52.921-40
			c-25.129,0-46.376,16.939-52.921,40H31.068c5.947-41.468,36.22-76.024,77.674-86.694c17.033-4.388,35.483-4.388,52.517,0
			c0.002,0.001,0.004,0.001,0.006,0.001C202.714,405.977,232.985,440.533,238.932,482z M120,362.826V148.487
			c0.043,0.009,0.086,0.014,0.128,0.023c9.472,1.912,19.739,2.038,29.872-0.023v214.339
			C140.315,361.755,130.231,361.694,120,362.826z M135,120c-25.171,0-45-20.531-45-45c0-24.813,20.187-45,45-45
			c24.492,0,45,19.855,45,45C180,99.913,159.8,120,135,120z M363.512,90H208.487c1.957-9.624,2.049-19.833,0.023-29.872
			c-0.009-0.043-0.014-0.086-0.023-0.128h155.025C361.455,70.113,361.562,80.428,363.512,90z M437,120c-24.492,0-45-19.855-45-45
			c0-25.171,20.531-45,45-45c24.813,0,45,20.187,45,45S461.813,120,437,120z"/>
	</g>
</g>
<g>
</g>
<g>
</g>
<g>
</g>
<g>
</g>
<g>
</g>
<g>
</g>
<g>
</g>
<g>
</g>
<g>
</g>
<g>
</g>
<g>
</g>
<g>
</g>
<g>
</g>
<g>
</g>
<g>
</g>
</svg>
