<?xml version="1.0" encoding="iso-8859-1"?>
<!-- Generator: Adobe Illustrator 19.0.0, SVG Export Plug-In . SVG Version: 6.00 Build 0)  -->
<svg version="1.1" id="Capa_1" xmlns="http://www.w3.org/2000/svg" xmlns:xlink="http://www.w3.org/1999/xlink" x="0px" y="0px"
	 viewBox="0 0 512 512" style="enable-background:new 0 0 512 512;" xml:space="preserve">
<g>
	<g>
		<path d="M372,0H140c-24.813,0-45,20.187-45,45v422c0,24.813,20.187,45,45,45h232c24.813,0,45-20.187,45-45V45
			C417,20.187,396.813,0,372,0z M387,467c0,8.271-6.729,15-15,15H140c-8.271,0-15-6.729-15-15V200h26v104c0,8.284,6.716,15,15,15h50
			c8.284,0,15-6.716,15-15V200h156V467z M181,289V81h20v208H181z M387,170H231V66c0-8.284-6.716-15-15-15h-50
			c-8.284,0-15,6.716-15,15v104h-26V45c0-8.271,6.729-15,15-15h232c8.271,0,15,6.729,15,15V170z"/>
	</g>
</g>
<g>
</g>
<g>
</g>
<g>
</g>
<g>
</g>
<g>
</g>
<g>
</g>
<g>
</g>
<g>
</g>
<g>
</g>
<g>
</g>
<g>
</g>
<g>
</g>
<g>
</g>
<g>
</g>
<g>
</g>
</svg>
