<?xml version="1.0" encoding="iso-8859-1"?>
<!-- Generator: Adobe Illustrator 19.0.0, SVG Export Plug-In . SVG Version: 6.00 Build 0)  -->
<svg version="1.1" id="Capa_1" xmlns="http://www.w3.org/2000/svg" xmlns:xlink="http://www.w3.org/1999/xlink" x="0px" y="0px"
	 viewBox="0 0 512 512" style="enable-background:new 0 0 512 512;" xml:space="preserve">
<g>
	<g>
		<path d="M511.552,493.362l-50-200C459.883,286.685,453.883,282,447,282c-7.393,0-375.094,0-382,0
			c-6.883,0-12.883,4.685-14.552,11.362l-50,200c-1.12,4.481-0.113,9.229,2.729,12.869C6.02,509.872,10.381,512,15,512
			c11.293,0,476.18,0,482,0c4.619,0,8.98-2.128,11.823-5.769C511.666,502.591,512.673,497.843,511.552,493.362z M206.135,312h99.73
			l5.833,70H200.302L206.135,312z M161.866,482H34.212l17.5-70h115.987L161.866,482z M170.199,382H59.212l17.5-70h99.32L170.199,382
			z M191.969,482l5.833-70h116.396l5.833,70H191.969z M335.969,312h99.319l17.5,70H341.802L335.969,312z M350.135,482l-5.833-70
			h115.986l17.5,70H350.135z"/>
	</g>
</g>
<g>
	<g>
		<path d="M256,61c-35.841,0-65,29.159-65,65s29.159,65,65,65s65-29.159,65-65S291.841,61,256,61z M256,161
			c-19.299,0-35-15.701-35-35s15.701-35,35-35s35,15.701,35,35S275.299,161,256,161z"/>
	</g>
</g>
<g>
	<g>
		<path d="M256,0c-8.284,0-15,6.716-15,15v20c0,8.284,6.716,15,15,15s15-6.716,15-15V15C271,6.716,264.284,0,256,0z"/>
	</g>
</g>
<g>
	<g>
		<path d="M256,202c-8.284,0-15,6.716-15,15v20c0,8.284,6.716,15,15,15s15-6.716,15-15v-20C271,208.716,264.284,202,256,202z"/>
	</g>
</g>
<g>
	<g>
		<path d="M165,111h-20c-8.284,0-15,6.716-15,15s6.716,15,15,15h20c8.284,0,15-6.716,15-15S173.284,111,165,111z"/>
	</g>
</g>
<g>
	<g>
		<path d="M367,111h-20c-8.284,0-15,6.716-15,15s6.716,15,15,15h20c8.284,0,15-6.716,15-15S375.284,111,367,111z"/>
	</g>
</g>
<g>
</g>
<g>
</g>
<g>
</g>
<g>
</g>
<g>
</g>
<g>
</g>
<g>
</g>
<g>
</g>
<g>
</g>
<g>
</g>
<g>
</g>
<g>
</g>
<g>
</g>
<g>
</g>
<g>
</g>
</svg>
