<?xml version="1.0" encoding="iso-8859-1"?>
<!-- Generator: Adobe Illustrator 19.0.0, SVG Export Plug-In . SVG Version: 6.00 Build 0)  -->
<svg version="1.1" id="Capa_1" xmlns="http://www.w3.org/2000/svg" xmlns:xlink="http://www.w3.org/1999/xlink" x="0px" y="0px"
	 viewBox="0 0 512 512" style="enable-background:new 0 0 512 512;" xml:space="preserve">
<g>
	<g>
		<path d="M506.924,314.752L461,274.23V230c0-111.92-90.676-205-205-205h-0.001C142.155,25,51,117.707,51,230v44.23L5.076,314.752
			C1.849,317.6,0,321.696,0,326v101c0,4.304,1.849,8.4,5.076,11.248l51,45c2.633,2.319,6.222,3.745,9.901,3.751
			c0.008,0,0.015,0.001,0.023,0.001h60c24.813,0,45-20.187,45-45V311c0-24.813-20.187-45-45-45H81v-36
			c0-53.012,23.698-100.59,61.052-132.708l20.042,27.858c4.839,6.727,14.228,8.255,20.952,3.405
			C204.406,113.145,229.633,105,256,105s51.594,8.146,72.954,23.555c6.707,4.836,16.101,3.339,20.952-3.405l20.042-27.858
			C407.302,129.41,431,176.988,431,230v36h-45c-24.813,0-45,20.187-45,45v131c0,24.813,20.187,45,45,45h60
			c0.008,0,0.015-0.001,0.023-0.001c3.673-0.006,7.261-1.423,9.901-3.751l51-45C510.151,435.4,512,431.304,512,427V326
			C512,321.696,510.151,317.6,506.924,314.752z M51,438.761l-21-18.529v-87.463l21-18.529V438.761z M126,296c8.271,0,15,6.729,15,15
			v131c0,8.271-6.729,15-15,15H81V296H126z M333.905,96.021C310.31,82.229,283.658,75,256,75c-27.659,0-54.311,7.228-77.905,21.021
			l-11.71-16.277C193.534,63.49,224.344,55,256,55c31.637,0,62.455,8.484,89.615,24.744L333.905,96.021z M431,457h-45
			c-8.271,0-15-6.729-15-15V311c0-8.271,6.729-15,15-15h45V457z M482,420.231l-21,18.529V314.239l21,18.529V420.231z"/>
	</g>
</g>
<g>
</g>
<g>
</g>
<g>
</g>
<g>
</g>
<g>
</g>
<g>
</g>
<g>
</g>
<g>
</g>
<g>
</g>
<g>
</g>
<g>
</g>
<g>
</g>
<g>
</g>
<g>
</g>
<g>
</g>
</svg>
