<?xml version="1.0" encoding="iso-8859-1"?>
<!-- Generator: Adobe Illustrator 19.0.0, SVG Export Plug-In . SVG Version: 6.00 Build 0)  -->
<svg version="1.1" id="Capa_1" xmlns="http://www.w3.org/2000/svg" xmlns:xlink="http://www.w3.org/1999/xlink" x="0px" y="0px"
	 viewBox="0 0 512 512" style="enable-background:new 0 0 512 512;" xml:space="preserve">
<g>
	<g>
		<path d="M467,131.5h-90.252l-24.044-70.822C350.638,54.593,344.926,50.5,338.5,50.5h-165c-6.426,0-12.138,4.093-14.204,10.178
			L135.252,131.5H106v-15c0-8.284-6.716-15-15-15H61c-8.284,0-15,6.716-15,15v15h-1c-24.813,0-45,20.187-45,45v240
			c0,24.813,20.187,45,45,45h422c24.813,0,45-20.187,45-45v-240C512,151.687,491.813,131.5,467,131.5z M482,416.5L482,416.5
			c0,8.271-6.729,15-15,15H45c-8.271,0-15-6.729-15-15v-240c0-8.271,6.729-15,15-15c11.364,0,90.73,0,101,0
			c6.426,0,12.138-4.093,14.204-10.178L184.248,80.5h143.504l24.044,70.822c2.066,6.085,7.778,10.178,14.204,10.178h101
			c8.271,0,15,6.729,15,15V416.5z"/>
	</g>
</g>
<g>
	<g>
		<path d="M256,191.5c-57.897,0-105,47.103-105,105c0,57.897,47.103,105,105,105c57.897,0,105-47.103,105-105
			C361,238.603,313.897,191.5,256,191.5z M256,371.5c-41.355,0-75-33.645-75-75c0-41.355,33.645-75,75-75s75,33.645,75,75
			S297.355,371.5,256,371.5z"/>
	</g>
</g>
<g>
	<g>
		<path d="M256,241c-30.327,0-55,24.673-55,55c0,30.327,24.673,55,55,55c30.327,0,55-24.673,55-55C311,265.673,286.327,241,256,241z
			 M256,321c-13.785,0-25-11.215-25-25c0-13.785,11.215-25,25-25c13.785,0,25,11.215,25,25C281,309.785,269.785,321,256,321z"/>
	</g>
</g>
<g>
	<g>
		<circle cx="432" cy="211.5" r="15"/>
	</g>
</g>
<g>
</g>
<g>
</g>
<g>
</g>
<g>
</g>
<g>
</g>
<g>
</g>
<g>
</g>
<g>
</g>
<g>
</g>
<g>
</g>
<g>
</g>
<g>
</g>
<g>
</g>
<g>
</g>
<g>
</g>
</svg>
