<?xml version="1.0" encoding="iso-8859-1"?>
<!-- Generator: Adobe Illustrator 19.0.0, SVG Export Plug-In . SVG Version: 6.00 Build 0)  -->
<svg version="1.1" id="Capa_1" xmlns="http://www.w3.org/2000/svg" xmlns:xlink="http://www.w3.org/1999/xlink" x="0px" y="0px"
	 viewBox="0 0 511.999 511.999" style="enable-background:new 0 0 511.999 511.999;" xml:space="preserve">
<g>
	<g>
		<path d="M502.198,164.902c-67.48-61.589-154.916-95.507-246.199-95.507S77.28,103.313,9.801,164.902
			c-6.043,5.515-9.613,13.366-9.794,21.541c-0.182,8.159,3.026,16.143,8.8,21.903c5.691,5.678,221.902,221.409,226.026,225.524
			c5.836,5.823,13.5,8.734,21.166,8.734c7.664,0,15.332-2.912,21.166-8.734c25.748-25.691,189.106-188.686,226.026-225.524
			c5.774-5.761,8.982-13.744,8.8-21.903C511.81,178.269,508.24,170.417,502.198,164.902z M255.999,412.627l-61.427-61.29
			c17.847-13.267,39.25-20.287,61.427-20.287c22.066,0,43.456,6.934,61.427,20.287L255.999,412.627z M338.839,329.971
			c-22.873-18.249-51.686-28.921-82.84-28.921c-29.76,0-58.881,9.798-82.84,28.921l-61.027-60.892
			c38.99-34.001,89.316-53.856,143.867-53.856c53.215,0,103.847,18.957,143.867,53.856L338.839,329.971z M482.025,187.103
			l-60.875,60.739c-44.871-39.803-102.856-62.619-165.151-62.619c-61.519,0-119.736,22.324-165.147,62.615l-60.851-60.77
			c61.946-56.537,142.207-87.673,225.998-87.673s164.052,31.137,226.041,87.692C482.04,187.087,482.035,187.092,482.025,187.103z"/>
	</g>
</g>
<g>
</g>
<g>
</g>
<g>
</g>
<g>
</g>
<g>
</g>
<g>
</g>
<g>
</g>
<g>
</g>
<g>
</g>
<g>
</g>
<g>
</g>
<g>
</g>
<g>
</g>
<g>
</g>
<g>
</g>
</svg>
