<?xml version="1.0" encoding="iso-8859-1"?>
<!-- Generator: Adobe Illustrator 19.0.0, SVG Export Plug-In . SVG Version: 6.00 Build 0)  -->
<svg version="1.1" id="Capa_1" xmlns="http://www.w3.org/2000/svg" xmlns:xlink="http://www.w3.org/1999/xlink" x="0px" y="0px"
	 viewBox="0 0 512 512" style="enable-background:new 0 0 512 512;" xml:space="preserve">
<g>
	<g>
		<path d="M497,444H293.071c-4.064-10.008-12.063-18.007-22.071-22.071V376h131c60.654,0,110-49.346,110-110
			c0-38.009-19.318-72.766-51.015-92.868C462.19,85.195,390.946,13,303,13c-44.531,0-86.364,18.479-116.276,51.03
			C116.4,47.155,49.596,101.654,51.021,173.125C19.314,193.224,0,227.964,0,266c0,60.654,49.346,110,110,110h131v45.929
			c-10.008,4.064-18.007,12.063-22.071,22.071H15c-8.284,0-15,6.716-15,15s6.716,15,15,15h203.929c5.947,14.643,20.318,25,37.071,25
			s31.124-10.357,37.071-25H497c8.284,0,15-6.716,15-15S505.284,444,497,444z M110,346c-44.112,0-80-35.888-80-80
			c0-30.109,16.647-57.384,43.444-71.18c5.523-2.844,8.723-8.798,8.045-14.973C75.07,121.4,131.707,76.383,186.934,95.297
			c5.959,2.041,12.558,0.142,16.52-4.754C227.909,60.329,264.192,43,303,43c73.869,0,133.11,62.837,127.649,137.488
			c-0.438,5.986,2.734,11.657,8.064,14.417C465.414,208.725,482,235.967,482,266c0,44.112-35.888,80-80,80H110z M256,469
			c-5.514,0-10-4.486-10-10c0-5.514,4.486-10,10-10c5.514,0,10,4.486,10,10C266,464.514,261.514,469,256,469z"/>
	</g>
</g>
<g>
</g>
<g>
</g>
<g>
</g>
<g>
</g>
<g>
</g>
<g>
</g>
<g>
</g>
<g>
</g>
<g>
</g>
<g>
</g>
<g>
</g>
<g>
</g>
<g>
</g>
<g>
</g>
<g>
</g>
</svg>
