<?xml version="1.0" encoding="iso-8859-1"?>
<!-- Generator: Adobe Illustrator 19.0.0, SVG Export Plug-In . SVG Version: 6.00 Build 0)  -->
<svg version="1.1" id="Capa_1" xmlns="http://www.w3.org/2000/svg" xmlns:xlink="http://www.w3.org/1999/xlink" x="0px" y="0px"
	 viewBox="0 0 512 512" style="enable-background:new 0 0 512 512;" xml:space="preserve">
<g>
	<g>
		<path d="M462.05,135.421c-5.843-5.873-15.34-5.899-21.213-0.057c-5.874,5.842-5.898,15.34-0.057,21.213
			C467.361,183.3,482,218.609,482,256s-14.639,72.699-41.22,99.422c-5.842,5.873-5.817,15.371,0.057,21.213
			c5.876,5.844,15.374,5.815,21.213-0.057C494.261,344.195,512,301.373,512,256S494.261,167.804,462.05,135.421z"/>
	</g>
</g>
<g>
	<g>
		<path d="M414.65,177.71c-5.979-5.735-15.474-5.537-21.209,0.439c-5.735,5.979-5.538,15.474,0.439,21.209
			c15.673,15.035,24.304,35.151,24.304,56.641s-8.631,41.606-24.304,56.641c-5.978,5.735-6.175,15.23-0.439,21.209
			c5.731,5.974,15.226,6.178,21.209,0.439c21.625-20.747,33.534-48.55,33.534-78.289S436.275,198.458,414.65,177.71z"/>
	</g>
</g>
<g>
	<g>
		<path d="M366.104,219.253c-6.583-5.026-15.997-3.767-21.025,2.818c-5.027,6.584-3.766,15.997,2.818,21.025
			c4.113,3.141,6.473,7.844,6.473,12.903c0,5.06-2.359,9.763-6.473,12.903c-6.584,5.028-7.846,14.441-2.818,21.025
			c5.03,6.585,14.442,7.846,21.025,2.818c11.608-8.864,18.266-22.258,18.266-36.747S377.712,228.117,366.104,219.253z"/>
	</g>
</g>
<g>
	<g>
		<path d="M272,211h-6V66c0-5.693-3.223-10.896-8.32-13.431c-5.098-2.534-11.19-1.965-15.731,1.47L60.964,191H15
			c-8.284,0-15,6.716-15,15v100c0,8.284,6.716,15,15,15h45.964l180.984,136.961c4.545,3.44,10.64,4.001,15.731,1.47
			c5.098-2.535,8.32-7.737,8.32-13.431V301h6c24.813,0,45-20.187,45-45C317,231.186,296.813,211,272,211z M51,291H30v-70h21V291z
			 M236,415.838L81,298.54v-85.08L236,96.161C236,103.264,236,406.472,236,415.838z M272,271h-6v-30h6c8.271,0,15,6.729,15,15
			S280.271,271,272,271z"/>
	</g>
</g>
<g>
</g>
<g>
</g>
<g>
</g>
<g>
</g>
<g>
</g>
<g>
</g>
<g>
</g>
<g>
</g>
<g>
</g>
<g>
</g>
<g>
</g>
<g>
</g>
<g>
</g>
<g>
</g>
<g>
</g>
</svg>
