<?xml version="1.0" encoding="iso-8859-1"?>
<!-- Generator: Adobe Illustrator 19.0.0, SVG Export Plug-In . SVG Version: 6.00 Build 0)  -->
<svg version="1.1" id="Capa_1" xmlns="http://www.w3.org/2000/svg" xmlns:xlink="http://www.w3.org/1999/xlink" x="0px" y="0px"
	 viewBox="0 0 512 512" style="enable-background:new 0 0 512 512;" xml:space="preserve">
<g>
	<g>
		<path d="M467,26H45C20.187,26,0,46.187,0,71v180c0,24.813,20.187,45,45,45h422c24.813,0,45-20.187,45-45V71
			C512,46.187,491.813,26,467,26z M482,251c0,8.271-6.729,15-15,15H45c-8.271,0-15-6.729-15-15v-5h452V251z M482,216H30V71
			c0-8.271,6.729-15,15-15h422c8.271,0,15,6.729,15,15V216z"/>
	</g>
</g>
<g>
	<g>
		<circle cx="442" cy="96" r="15"/>
	</g>
</g>
<g>
	<g>
		<path d="M287,331c0-8.284-6.716-15-15-15s-15,6.716-15,15c0,26.042-32,29.137-32,70c0,40.884,32,43.929,32,70
			c0,8.284,6.716,15,15,15s15-6.716,15-15c0-40.884-32-43.929-32-70C255,374.958,287,371.863,287,331z"/>
	</g>
</g>
<g>
	<g>
		<path d="M387,331c0-8.284-6.716-15-15-15s-15,6.716-15,15c0,26.042-32,29.137-32,70c0,40.884,32,43.929,32,70
			c0,8.284,6.716,15,15,15s15-6.716,15-15c0-40.884-32-43.929-32-70C355,374.958,387,371.863,387,331z"/>
	</g>
</g>
<g>
	<g>
		<path d="M187,331c0-8.284-6.716-15-15-15s-15,6.716-15,15c0,26.042-32,29.137-32,70c0,40.884,32,43.929,32,70
			c0,8.284,6.716,15,15,15s15-6.716,15-15c0-40.884-32-43.929-32-70C155,374.958,187,371.863,187,331z"/>
	</g>
</g>
<g>
</g>
<g>
</g>
<g>
</g>
<g>
</g>
<g>
</g>
<g>
</g>
<g>
</g>
<g>
</g>
<g>
</g>
<g>
</g>
<g>
</g>
<g>
</g>
<g>
</g>
<g>
</g>
<g>
</g>
</svg>
