<?xml version="1.0" encoding="iso-8859-1"?>
<!-- Generator: Adobe Illustrator 19.0.0, SVG Export Plug-In . SVG Version: 6.00 Build 0)  -->
<svg version="1.1" id="Capa_1" xmlns="http://www.w3.org/2000/svg" xmlns:xlink="http://www.w3.org/1999/xlink" x="0px" y="0px"
	 viewBox="0 0 512 512" style="enable-background:new 0 0 512 512;" xml:space="preserve">
<g>
	<g>
		<path d="M416,0H96.005c-24.813,0-45,20.187-45,45v71.638c0,0.033-0.005,0.064-0.005,0.097c0,0.033,0.005,0.064,0.005,0.097V467
			c0,24.813,20.187,45,45,45H416c24.813,0,45-20.187,45-45V45C461,20.187,440.813,0,416,0z M431,467c0,8.271-6.729,15-15,15H96.005
			c-8.271,0-15-6.729-15-15V131.734H431V467z M431,101.734H81.005V45c0-8.271,6.728-15,15-15H416c8.271,0,15,6.729,15,15V101.734z"
			/>
	</g>
</g>
<g>
	<g>
		<circle cx="371" cy="66" r="15"/>
	</g>
</g>
<g>
	<g>
		<circle cx="311" cy="66" r="15"/>
	</g>
</g>
<g>
	<g>
		<path d="M256,177c-71.681,0-129.998,58.317-129.998,130S184.319,437,256,437s129.998-58.317,129.998-130S327.681,177,256,177z
			 M256,407c-55.139,0-99.998-44.859-99.998-100S200.861,207,256,207c55.139,0,99.998,44.859,99.998,100S311.139,407,256,407z"/>
	</g>
</g>
<g>
</g>
<g>
</g>
<g>
</g>
<g>
</g>
<g>
</g>
<g>
</g>
<g>
</g>
<g>
</g>
<g>
</g>
<g>
</g>
<g>
</g>
<g>
</g>
<g>
</g>
<g>
</g>
<g>
</g>
</svg>
