<?xml version="1.0" encoding="iso-8859-1"?>
<!-- Generator: Adobe Illustrator 19.0.0, SVG Export Plug-In . SVG Version: 6.00 Build 0)  -->
<svg version="1.1" id="Capa_1" xmlns="http://www.w3.org/2000/svg" xmlns:xlink="http://www.w3.org/1999/xlink" x="0px" y="0px"
	 viewBox="0 0 512 512" style="enable-background:new 0 0 512 512;" xml:space="preserve">
<g>
	<g>
		<path d="M336,0H176c-24.813,0-45,20.187-45,45v342c0,68.925,56.075,125,125,125s125-56.075,125-125V45C381,20.187,360.813,0,336,0
			z M351,387c0,52.383-42.617,95-95,95s-95-42.617-95-95V45c0-8.271,6.729-15,15-15h160c8.271,0,15,6.729,15,15V387z"/>
	</g>
</g>
<g>
	<g>
		<path d="M285,322h-14v-14c0-8.284-6.716-15-15-15s-15,6.716-15,15v14h-14c-8.284,0-15,6.716-15,15s6.716,15,15,15h14v14
			c0,8.284,6.716,15,15,15s15-6.716,15-15v-14h14c8.284,0,15-6.716,15-15S293.284,322,285,322z"/>
	</g>
</g>
<g>
	<g>
		<path d="M232,112h-36c-8.284,0-15,6.716-15,15s6.716,15,15,15h36c8.284,0,15-6.716,15-15S240.284,112,232,112z"/>
	</g>
</g>
<g>
	<g>
		<path d="M316,112h-36c-8.284,0-15,6.716-15,15s6.716,15,15,15h36c8.284,0,15-6.716,15-15S324.284,112,316,112z"/>
	</g>
</g>
<g>
	<g>
		<path d="M232,172h-36c-8.284,0-15,6.716-15,15s6.716,15,15,15h36c8.284,0,15-6.716,15-15S240.284,172,232,172z"/>
	</g>
</g>
<g>
	<g>
		<path d="M316,172h-36c-8.284,0-15,6.716-15,15s6.716,15,15,15h36c8.284,0,15-6.716,15-15S324.284,172,316,172z"/>
	</g>
</g>
<g>
	<g>
		<path d="M308,52h-20c-8.284,0-15,6.716-15,15s6.716,15,15,15h20c8.284,0,15-6.716,15-15S316.284,52,308,52z"/>
	</g>
</g>
<g>
	<g>
		<path d="M232,232h-36c-8.284,0-15,6.716-15,15s6.716,15,15,15h36c8.284,0,15-6.716,15-15S240.284,232,232,232z"/>
	</g>
</g>
<g>
	<g>
		<path d="M316,232h-36c-8.284,0-15,6.716-15,15s6.716,15,15,15h36c8.284,0,15-6.716,15-15S324.284,232,316,232z"/>
	</g>
</g>
<g>
</g>
<g>
</g>
<g>
</g>
<g>
</g>
<g>
</g>
<g>
</g>
<g>
</g>
<g>
</g>
<g>
</g>
<g>
</g>
<g>
</g>
<g>
</g>
<g>
</g>
<g>
</g>
<g>
</g>
</svg>
