<?xml version="1.0" encoding="iso-8859-1"?>
<!-- Generator: Adobe Illustrator 19.0.0, SVG Export Plug-In . SVG Version: 6.00 Build 0)  -->
<svg version="1.1" id="Capa_1" xmlns="http://www.w3.org/2000/svg" xmlns:xlink="http://www.w3.org/1999/xlink" x="0px" y="0px"
	 viewBox="0 0 512 512" style="enable-background:new 0 0 512 512;" xml:space="preserve">
<g>
	<g>
		<path d="M506.529,460.51l-42.201-290c-3.196-21.954-22.323-38.51-44.492-38.51H371.79c0.63-4.912,0.957-9.919,0.957-15
			c0-64.514-52.39-117-116.787-117c-64.396,0-116.786,52.486-116.786,117c0,5.081,0.326,10.088,0.957,15H92.164
			c-22.169,0-41.296,16.556-44.492,38.51l-42.201,290c-1.884,12.948,1.943,26.049,10.502,35.943
			C24.519,506.333,36.908,512,49.963,512h412.075c13.054,0,25.443-5.667,33.99-15.547
			C504.586,486.559,508.414,473.458,506.529,460.51z M255.96,30c47.854,0,86.786,39.028,86.786,87c0,47.83-38.811,87-86.786,87
			c-47.849,0-86.786-39.034-86.786-87C169.174,69.028,208.106,30,255.96,30z M291.853,228.34V307h-71.786v-78.66
			c24.703,7.833,49.45,7.236,71.752,0.01C291.83,228.346,291.841,228.343,291.853,228.34z M473.337,476.826
			c-2.886,3.337-6.899,5.174-11.3,5.174H49.963c-4.401,0-8.414-1.837-11.3-5.174c-2.898-3.35-4.142-7.61-3.504-11.996l42.201-290
			c1.064-7.314,7.429-12.83,14.804-12.83h55.998c8.721,20.888,23.119,38.729,41.904,51.582V322c0,8.284,6.716,15,15,15h101.786
			c8.284,0,15-6.716,15-15V213.578c19-13.009,33.348-31.083,41.904-51.578h56.078c7.375,0,13.74,5.516,14.804,12.83l42.201,290
			C477.48,469.216,476.235,473.477,473.337,476.826z"/>
	</g>
</g>
<g>
	<g>
		<path d="M430.723,431c-8.273,0-14.979,6.72-14.979,15c0,8.28,6.706,15,14.979,15s14.979-6.72,14.979-15
			C445.702,437.72,438.996,431,430.723,431z"/>
	</g>
</g>
<g>
	<g>
		<path d="M370.809,431c-8.273,0-14.979,6.72-14.979,15c0,8.28,6.706,15,14.979,15s14.978-6.72,14.978-15
			C385.787,437.72,379.082,431,370.809,431z"/>
	</g>
</g>
<g>
</g>
<g>
</g>
<g>
</g>
<g>
</g>
<g>
</g>
<g>
</g>
<g>
</g>
<g>
</g>
<g>
</g>
<g>
</g>
<g>
</g>
<g>
</g>
<g>
</g>
<g>
</g>
<g>
</g>
</svg>
